<?xml version="1.0" encoding="utf-8"?>
<!-- Generator: Adobe Illustrator 27.5.0, SVG Export Plug-In . SVG Version: 6.00 Build 0)  -->
<svg version="1.1" id="Layer_1" xmlns="http://www.w3.org/2000/svg"
	xmlns:xlink="http://www.w3.org/1999/xlink" x="0px" y="0px"
	viewBox="0 0 4000 4000" style="enable-background:new 0 0 4000 4000;" xml:space="preserve">
<g>
	<g>
		<g>
			<g>
				<g>
					<g>
						<path style="fill:#D3613C;" d="M2598.177,2315.325c-75.575,82.768-193.061,129.282-291.365,145.107l-172.632-33.568
							l-131.392-121.993l-2.877-2.686l19.181-282.925l91.112-115.088c62.531,28.676,62.771,211.522,140.791,292.899
							c12.612,13.14,30.786,19.469,48.769,16.784c40.185-5.946,84.589-24.744,130.769-48.673
							c12.996-6.713,26.087-13.858,39.322-21.243L2598.177,2315.325z"/>
					</g>
					<g>
						<path style="fill:#591224;" d="M2306.813,2472.42c-0.767,0-1.533-0.073-2.288-0.22l-172.633-33.567
							c-2.197-0.427-4.23-1.46-5.87-2.983l-134.269-124.68c-2.65-2.461-4.048-5.987-3.802-9.595l19.181-282.925
							c0.164-2.419,1.057-4.731,2.561-6.631l91.112-115.088c3.429-4.329,9.373-5.754,14.396-3.457
							c36.226,16.609,52.39,71.138,71.107,134.277c17.045,57.495,36.362,122.661,73.334,161.228
							c9.952,10.383,24.294,15.322,38.37,13.232c51.932-7.727,113.057-38.984,165.999-68.54c5.242-2.92,11.841-1.523,15.439,3.284
							l128.328,171.379c3.451,4.607,3.138,11.018-0.743,15.269c-67.577,74.011-179.097,129.661-298.314,148.865
							C2308.087,2472.371,2307.45,2472.42,2306.813,2472.42z M2139.829,2415.75l167.169,32.505
							c109.321-18.027,211.34-67.69,275.547-133.816l-116.019-154.941c-52.667,29.033-112.317,58.394-164.984,66.231
							c-21.749,3.24-43.885-4.37-59.209-20.357c-40.999-42.766-61.194-110.896-79.012-171.006
							c-14.673-49.495-28.616-96.526-50.354-114.368l-82.166,103.787l-18.542,273.506L2139.829,2415.75z"/>
					</g>
					<g style="opacity:0.25;">
						<g>
							<path style="fill:#591224;" d="M2598.177,2315.325c-75.575,82.768-193.061,129.282-291.365,145.107l-172.632-33.568
								l-131.392-121.993c14.482-93.318,52.557-182.895,109.909-257.942l0.192-9.735c13.283,18.989,17.886,42.535,22.202,65.312
								c5.754,30.498,11.509,60.949,17.263,91.447c10.885,57.496,25.559,121.083,74.04,153.835
								c44.021,29.731,102.764,24.408,153.93,10.118c31.122-8.679,65.792-24.984,72.649-56.537
								c5.707-26.374-10.597-51.741-18.606-77.445c-5.898-18.941-7.049-39.177-3.836-58.743
								c12.996-6.713,26.087-13.858,39.322-21.243L2598.177,2315.325z"/>
						</g>
					</g>
				</g>
				<g>
					<g>
						<g>
							<ellipse style="fill:#D3613C;" cx="2174.941" cy="2479.614" rx="189.416" ry="129.474"/>
						</g>
						<g>
							<path style="fill:#591224;" d="M2174.94,2621.075c-111.055,0-201.404-63.459-201.404-141.462s90.349-141.46,201.404-141.46
								s201.405,63.457,201.405,141.46S2285.995,2621.075,2174.94,2621.075z M2174.94,2362.127
								c-97.833,0-177.427,52.705-177.427,117.485c0,64.783,79.594,117.488,177.427,117.488
								c97.834,0,177.428-52.705,177.428-117.488C2352.368,2414.833,2272.775,2362.127,2174.94,2362.127z"/>
						</g>
					</g>
					<g>
						
							<linearGradient id="SVGID_1_" gradientUnits="userSpaceOnUse" x1="3143.6323" y1="3586.0542" x2="3143.6323" y2="3288.1782" gradientTransform="matrix(0.2336 0.9723 -0.9723 0.2336 3435.9785 -552.3918)">
							<stop  offset="0" style="stop-color:#FF4545"/>
							<stop  offset="1" style="stop-color:#F7931E"/>
						</linearGradient>
						<path style="fill:url(#SVGID_1_);" d="M1228.727,3210.9c0,0-70.491,242.131-252.387,262.774
							c-141.82,16.095-238.821-134.657-467.854-89.74c224.442-64.028,242.375-242.391,376.028-292.478
							C1055.937,3027.216,1228.727,3210.9,1228.727,3210.9z"/>
						<g>
							<path style="fill:#FFAC48;" d="M781.237,3318.408c20.87-20.903,38.164-42.229,54.1-61.885
								c28.116-34.675,50.326-62.064,80.928-73.531c70.364-26.369,148.393,25.764,187.519,58.009
								c-20.091,46.511-65.693,128.19-140.74,136.707c-32.472,3.686-64.7-10.625-105.5-28.745
								C834.419,3338.693,809.325,3327.549,781.237,3318.408z"/>
						</g>
						<g>
							<path style="fill:#591224;" d="M954.982,3489.266c-54.375,0-102.916-21.558-153.949-44.219
								c-76.018-33.757-162.183-72.021-289.778-46.997c-7.556,1.482-14.956-3.259-16.757-10.754
								c-1.8-7.498,2.628-15.081,10.042-17.195c125.04-35.671,184.418-108.899,236.804-173.506
								c40.044-49.385,77.867-96.031,138.123-118.611c178.335-66.841,352.417,115.271,359.739,123.059
								c3.49,3.708,4.758,8.987,3.334,13.877c-2.987,10.261-75.343,251.572-264.576,273.047
								C970.177,3488.851,962.521,3489.266,954.982,3489.266z M602.93,3361.243c85.393,2.263,150.512,31.187,209.78,57.507
								c56.796,25.222,105.853,47.007,162.008,40.628c152.292-17.283,223.677-203.472,237.618-244.534
								c-31.104-30.217-179.474-163.625-322.773-109.917c-52.93,19.834-86.731,61.521-125.87,109.788
								C722.852,3265.084,677.965,3320.438,602.93,3361.243z"/>
						</g>
						<g>
							<path style="fill:#DADEE8;" d="M1426.426,3279.412c0,0-167.906,191.351-216.729,196.703
								c-44.768,4.907-116.837-76.355-152.32-224.05s-8.194-252.827,33.917-268.792c45.925-17.411,282.432,76.782,282.432,76.782
								L1426.426,3279.412z"/>
						</g>
						<g>
							<path style="fill:#FFFFFF;" d="M1066.903,3283.186c1.83,7.65,3.762,15.15,5.79,22.419
								c-5.58-16.723-10.758-34.592-15.322-53.559c-35.47-147.663-8.185-252.803,33.925-268.773
								c45.916-17.396,282.425,76.767,282.425,76.767l7.266,30.27c-24.276-9.569-236.849-92.332-280.191-75.911
								C1058.685,3030.369,1031.399,3135.509,1066.903,3283.186z"/>
						</g>
						<g>
							<path style="fill:#B5BAC6;" d="M1426.432,3279.432c0,0-167.914,191.323-216.725,196.678
								c-38.441,4.236-97.06-55.124-135.321-165.581c31.105,48.282,64.971,72.847,90.154,70.069
								c26.659-2.924,88.851-61.333,139.809-113.746c-0.346-18.44-36.407-123.774,0.49-186.645
								c23.396-39.865,44.405-29.626,44.405-29.626c15.221,5.783,24.476,9.459,24.476,9.459L1426.432,3279.432z"/>
						</g>
						<g>
							<path style="fill:#591224;" d="M1206.091,3490.697c-53.082,0-126.757-85.652-162.701-235.271
								c-37.128-154.539-7.393-266.572,42.805-285.605c48.682-18.442,252.494,60.798,292.855,76.873
								c4.342,1.729,7.573,5.459,8.665,10.005l52.699,219.355c1.091,4.543-0.092,9.336-3.175,12.847
								c-28.654,32.656-174.214,195.842-225.973,201.516C1209.565,3490.604,1207.838,3490.697,1206.091,3490.697z M1107.388,2995.25
								c-4.637,0-8.345,0.471-10.994,1.475c-32.052,12.153-59.408,108.877-25.028,251.982s102.677,216.848,136.764,213.11
								c29.133-3.196,134.147-108.984,202.562-186.309l-49.208-204.827C1274.689,3036.531,1150.731,2995.25,1107.388,2995.25z"/>
						</g>
						<g>
							<path style="fill:#591224;" d="M1206.091,3490.697c-53.082,0-126.757-85.652-162.701-235.271
								c-37.128-154.539-7.393-266.572,42.805-285.605c48.682-18.442,252.494,60.798,292.855,76.873
								c4.342,1.729,7.573,5.459,8.665,10.005l52.699,219.355c1.091,4.543-0.092,9.336-3.175,12.847
								c-28.654,32.656-174.214,195.842-225.973,201.516C1209.565,3490.604,1207.838,3490.697,1206.091,3490.697z M1107.388,2995.25
								c-4.637,0-8.345,0.471-10.994,1.475c-32.052,12.153-59.408,108.877-25.028,251.982s102.677,216.848,136.764,213.11
								c29.133-3.196,134.147-108.984,202.562-186.309l-49.208-204.827C1274.689,3036.531,1150.731,2995.25,1107.388,2995.25z"/>
						</g>
						<g>
							<path style="fill:#591224;" d="M1206.067,3490.701c-53.071,0-126.73-85.645-162.677-235.276
								c-37.133-154.558-7.405-266.584,42.787-285.598c9.824-3.723,29.845-6.897,89.982,8.445
								c23.402,5.999,50.791,14.185,81.418,24.329c63.235,20.95,120.876,43.845,121.451,44.072
								c4.343,1.729,7.576,5.461,8.668,10.007l52.709,219.395c1.091,4.543-0.093,9.336-3.176,12.849
								c-0.408,0.466-41.359,47.048-88.177,94.433c-22.69,22.969-43.373,42.7-61.471,58.652
								c-46.611,40.996-65.886,47.263-76.332,48.411c0,0-0.001,0-0.002,0C1209.547,3490.609,1207.814,3490.701,1206.067,3490.701z
								 M1209.677,3476.121h0.05H1209.677z M1106.648,2995.511c-6.062,0-9.008,0.74-10.278,1.221
								c-32.045,12.141-59.387,108.855-25.004,251.975c34.382,143.115,102.661,216.843,136.741,213.115
								c3.593-0.398,18.562-4.556,60.461-41.409c17.592-15.503,37.788-34.778,60.016-57.275
								c36.799-37.246,69.929-73.992,82.094-87.637l-49.205-204.807c-17.034-6.631-63.241-24.314-112.943-40.779
								c-30.002-9.939-56.75-17.937-79.5-23.767C1135.308,2997.545,1116.698,2995.511,1106.648,2995.511z"/>
						</g>
						<g>
							<path style="fill:#591224;" d="M1278.068,3438.758c-0.983,0-1.973-0.193-2.913-0.586
								c-40.944-17.151-95.194-88.308-124.095-208.611c-28.903-120.31-12.898-208.345,15.786-242.222
								c1.868-2.205,4.829-3.154,7.628-2.432c23.236,5.955,50.471,14.094,80.951,24.192
								c63.046,20.884,120.499,43.704,121.073,43.933c2.277,0.906,3.971,2.861,4.543,5.244l52.709,219.395
								c0.573,2.383-0.048,4.895-1.665,6.738c-0.406,0.464-41.223,46.895-87.902,94.138c-22.582,22.856-43.148,42.48-61.128,58.328
								C1281.653,3438.111,1279.872,3438.758,1278.068,3438.758z M1175.498,3000.758c-23.582,32.793-36.24,115.105-9.773,225.278
								c26.469,110.171,75.137,177.749,111.044,196.252c16.832-15.024,35.88-33.284,56.685-54.341
								c39.659-40.142,75.062-79.695,84.714-90.569l-50.875-211.76c-13.538-5.302-63.044-24.456-116.611-42.202
								C1222.599,3014.115,1197.335,3006.5,1175.498,3000.758z"/>
						</g>
						<g>
							<path style="fill:#591224;" d="M1338.818,3380.789c-0.011,0-0.022,0-0.033,0c-2.028-0.01-3.966-0.835-5.378-2.29
								c-35.205-36.27-65.526-99.238-83.188-172.761c-17.665-73.523-19.259-143.396-4.373-191.701
								c0.597-1.936,1.949-3.552,3.751-4.483c1.803-0.93,3.901-1.091,5.828-0.454c63.046,20.884,120.499,43.704,121.073,43.933
								c2.277,0.906,3.971,2.861,4.543,5.244l52.709,219.395c0.573,2.383-0.048,4.895-1.665,6.738
								c-0.406,0.464-41.223,46.895-87.902,94.138C1342.766,3379.984,1340.834,3380.789,1338.818,3380.789z M1258.156,3025.912
								c-11.788,45.449-9.423,109.079,6.729,176.301c16.15,67.224,42.948,124.983,74.095,160.117
								c37.383-38.154,69.988-74.585,79.188-84.951l-50.875-211.76C1354.387,3060.562,1308.793,3042.921,1258.156,3025.912z"/>
						</g>
						<g>
							<path style="fill:#DADEE8;" d="M1501.89,3273.295c0,0-51.51,84.086-100.723,66.551
								c-44.507-15.858-75.444-113.024-84.354-150.109c-8.909-37.084-25.488-137.7,6.958-172.046
								c35.876-37.977,119.962,13.533,119.962,13.533L1501.89,3273.295z"/>
						</g>
						<g>
							<path style="fill:#FFFFFF;" d="M1501.873,3273.297c0,0-0.633,1.051-1.881,2.927l-51.881-216.105
								c0,0-84.112-51.49-119.981-13.531c-21.779,23.039-21.478,75.888-16.226,119.396c-8.208-45.595-15.105-119.769,11.869-148.294
								c35.869-37.959,119.981,13.531,119.981,13.531L1501.873,3273.297z"/>
						</g>
						<g>
							<path style="fill:#B5BAC6;" d="M1501.873,3273.297c0,0-51.476,84.079-100.702,66.554
								c-44.506-15.861-75.437-113.042-84.347-150.11c-1.713-7.099-3.694-16.514-5.567-27.393
								c15.054,41.34,38.973,89.325,69.07,100.052c49.226,17.525-40.009-97.765-1.372-195.18
								c21.859-55.114,62.198-37.551,62.198-37.551c1.681,0.974,2.6,1.551,2.6,1.551L1501.873,3273.297z"/>
						</g>
						<g>
							<path style="fill:#591224;" d="M1415.397,3356.717c-6.256,0-12.622-1.025-19.058-3.318
								c-58.467-20.835-90.099-146.089-93.513-160.303c-3.416-14.211-32.135-140.166,10.487-185.283
								c42.662-45.156,128.311,5.249,137.936,11.143c3.253,1.995,5.582,5.198,6.473,8.909l58.156,242.073
								c0.891,3.708,0.272,7.62-1.721,10.874C1508.909,3289.378,1466.022,3356.717,1415.397,3356.717z M1360.618,3018.182
								c-10.608,0-19.989,2.615-26.389,9.39c-24.152,25.564-14.919,110.974-3.427,158.804
								c11.49,47.832,42.065,128.115,75.194,139.92c28.726,10.251,65.699-33.733,80.466-55.628l-55.277-230.093
								C1415.151,3031.69,1384.727,3018.182,1360.618,3018.182z"/>
						</g>
						<g>
							<path style="fill:#F8FCFF;" d="M3368.513,2696.829c22.301,92.824-204.325,526.722-998.385,717.49
								c-438.102,105.251-748.008,7.141-841.782-29.786c-25.614-10.086-47.895-27.142-64.088-49.405
								c-21.8-29.972-49.533-81.243-69.446-164.129c-19.913-82.885-18.497-141.16-12.692-177.763
								c4.312-27.189,16.413-52.505,34.65-73.126c66.765-75.496,298.281-303.679,736.383-408.931
								C2947.214,2320.409,3346.213,2604.004,3368.513,2696.829z"/>
						</g>
						<g>
							<path style="fill:#F8FCFF;" d="M3368.513,2696.829c22.301,92.824-204.325,526.722-998.385,717.49
								c-438.102,105.251-748.008,7.141-841.782-29.786c-25.614-10.086-47.895-27.142-64.088-49.405
								c-21.8-29.972-49.533-81.243-69.446-164.129c-19.913-82.885-18.497-141.16-12.692-177.763
								c4.312-27.189,16.413-52.505,34.65-73.126c66.765-75.496,298.281-303.679,736.383-408.931
								C2947.214,2320.409,3346.213,2604.004,3368.513,2696.829z"/>
						</g>
						<g>
							<path style="fill:#F8FCFF;" d="M2370.117,3414.307c-438.092,105.249-748.004,7.165-841.767-29.755
								c-25.639-10.101-47.91-27.148-64.088-49.423c-16.192-22.242-35.661-56.26-52.755-106.228
								c-5.909-17.324-11.563-36.553-16.687-57.881c-19.918-82.906-18.491-141.183-12.701-177.792
								c4.318-27.167,16.422-52.51,34.67-73.119c66.76-75.485,298.257-303.701,736.382-408.936
								c794.05-190.76,1193.042,92.835,1215.345,185.673c1.868,7.744,2.01,17.86,0.211,30.028
								C3349.041,2860.373,3097.933,3239.489,2370.117,3414.307z"/>
						</g>
						<g>
							<path style="fill:#F8FCFF;" d="M2370.129,3414.308c-438.09,105.24-748.012,7.182-841.785-29.747
								c-25.656-10.098-47.909-27.14-64.092-49.42c-16.196-22.245-35.651-56.26-52.755-106.247
								c-5.911-17.329-11.573-36.536-16.69-57.873c-19.927-82.896-18.458-141.19-12.681-177.803
								c3.166-19.932,10.525-38.921,21.468-55.746c3.938-6.104,8.367-11.907,13.19-17.363
								c66.767-75.503,298.27-303.694,736.396-408.921c9.917-2.374,19.737-4.702,29.505-6.89
								c774.433-176.804,1163.836,100.888,1185.838,192.547c1.845,7.753,2.017,17.863,0.193,30.011
								C3349.045,2860.385,3097.935,3239.49,2370.129,3414.308z"/>
						</g>
						<g>
							<path style="fill:#F8FCFF;" d="M2360.538,3414.308c-438.09,105.24-748.012,7.182-841.785-29.747
								c-25.656-10.098-47.909-27.14-64.092-49.42c-16.196-22.245-35.651-56.26-52.755-106.247
								c-5.911-17.329-11.573-36.536-16.69-57.873c-19.927-82.896-18.458-141.19-12.681-177.803
								c3.166-19.932,10.526-38.921,21.468-55.746c3.938-6.104,8.367-11.907,13.19-17.363
								c58.825-66.494,245.428-251.472,588.514-366.526c46.408-15.57,95.675-29.846,147.882-42.395
								c9.917-2.374,19.737-4.702,29.505-6.89c205.264-46.848,383.459-61.795,534.948-56.726
								c420.095,14.037,634.724,181.908,650.89,249.273c1.845,7.753,2.017,17.863,0.193,30.011
								C3339.454,2860.385,3088.344,3239.49,2360.538,3414.308z"/>
						</g>
						<g>
							<path style="fill:#CEDEF2;" d="M2370.117,3414.307c-438.092,105.249-748.004,7.165-841.767-29.755
								c-25.639-10.101-47.91-27.148-64.088-49.423c-16.192-22.242-35.661-56.26-52.755-106.228
								c54.336,20.474,364.748,129.482,543.92,15.78c126.057-80.014-49.607-203.781,82.405-345.131
								c94.545-101.234,289.962-99.1,408.735-40.12c47.028,23.337,39.521,128.352,117.616,175.083
								c200.674,120.106,622.789-62.765,804.544-307.639C3349.041,2860.373,3097.933,3239.489,2370.117,3414.307z"/>
						</g>
						<g>
							<path style="fill:#C3D3EA;" d="M2954.921,3183.99c-17.855-44.909-34.983-92.299-51.164-141.769
								c175.884-53.844,360.291-174.331,464.97-315.348C3355.673,2815.181,3241.41,3010.948,2954.921,3183.99z"/>
						</g>
						<g>
							<path style="fill:#591224;" d="M1983.61,3475.638c-237.747,0.005-401.869-54.617-460.535-77.72
								c-28.359-11.167-52.721-29.954-70.45-54.329c-21.215-29.167-50.892-82.202-71.799-169.231
								c-20.908-87.026-18.563-147.756-12.913-183.376c4.722-29.768,17.889-57.571,38.082-80.406
								c61.825-69.91,298.181-306.331,743.798-413.389c430.056-103.313,729.222-64.282,904.467-13.347
								c194.041,56.404,313.942,150.103,328.242,209.629c14.301,59.524-49.95,197.463-197.192,335.857
								c-132.979,124.985-381.765,295.662-811.82,398.982C2228.927,3463.038,2097.769,3475.635,1983.61,3475.638z
								 M2660.647,2461.026c-140.947,0-308.706,17.19-504.133,64.138c-437.432,105.093-668.55,336.157-728.966,404.475
								c-16.56,18.726-27.356,41.497-31.219,65.85c-5.239,33.04-7.329,89.724,12.473,172.148
								c19.801,82.424,47.413,131.975,67.09,159.029c14.506,19.941,34.467,35.322,57.726,44.48
								c84.856,33.418,395.713,134.272,833.151,29.187c423.921-101.846,668.396-269.37,798.835-391.97
								c160.503-150.857,196.941-274.795,188.922-308.174l0,0c-8.019-33.376-96.781-127.236-308.297-188.718
								C2953.574,2484.539,2825.443,2461.026,2660.647,2461.026z"/>
						</g>
						<g>
							<path style="fill:#F75252;" d="M2954.917,3183.976c-42.773-107.763-81.528-229.814-112.957-360.635
								c-31.438-130.856-52.348-257.158-63.196-372.591c379.791,27.273,574.364,182.067,589.745,246.09
								C3383.89,2760.863,3280.862,2987.117,2954.917,3183.976z"/>
						</g>
						<g>
							<path style="fill:#F75252;" d="M2954.917,3183.976c-42.773-107.763-81.528-229.814-112.957-360.635
								c-31.438-130.856-52.348-257.158-63.196-372.591c379.791,27.273,574.364,182.067,589.745,246.09
								C3383.89,2760.863,3280.862,2987.117,2954.917,3183.976z"/>
						</g>
						<g style="opacity:0.5;">
							<path style="fill:#FFFFFF;" d="M3047.944,2749.494c-6.634-15.769,90.112-71.38,176.935-56.999
								c105.837,17.53,33.832,57.672-9.553,67.567C3140.498,2777.129,3054.578,2765.263,3047.944,2749.494z"/>
						</g>
						<g style="opacity:0.5;">
							<path style="fill:#FFFFFF;" d="M3367.607,2733.253c-21.481-65.843-214.467-214.608-584.659-242.157
								c-1.545-13.605-2.921-27.061-4.173-40.349c379.787,27.268,574.35,182.069,589.741,246.101
								C3370.682,2705.914,3370.492,2718.212,3367.607,2733.253z"/>
						</g>
						<g>
							<path style="fill:#D83636;" d="M2954.921,3183.99c-17.855-44.909-34.983-92.299-51.164-141.769
								c175.884-53.844,360.291-174.331,464.97-315.348C3355.673,2815.181,3241.41,3010.948,2954.921,3183.99z"/>
						</g>
						<g>
							<path style="fill:#591224;" d="M2954.916,3198.363c-1.543,0-3.093-0.249-4.59-0.754c-4.009-1.348-7.219-4.395-8.781-8.325
								c-44.489-112.087-82.7-234.077-113.573-362.583c-30.873-128.503-52.249-254.538-63.531-374.604
								c-0.397-4.209,1.082-8.381,4.039-11.404c2.957-3.025,7.097-4.626,11.313-4.29c384.224,27.59,585.048,183.589,602.703,257.078
								c17.653,73.472-90.392,303.655-420.142,502.81C2960.085,3197.659,2957.51,3198.363,2954.916,3198.363z M2794.75,2466.419
								c11.531,113.586,32.1,232.439,61.199,353.56c29.099,121.123,64.764,236.345,106.091,342.776
								c307.732-190.686,405.747-407.336,392.48-462.554C3341.251,2644.969,3155.509,2496.47,2794.75,2466.419z"/>
						</g>
						<g>
							<path style="fill:#591224;" d="M1798.452,3461.473c-3.945,0-7.777-2.065-9.857-5.747
								c-0.856-1.511-86.08-153.56-132.664-347.461c-46.583-193.899-39.73-368.064-39.656-369.8
								c0.269-6.24,5.551-11.108,11.787-10.815c6.241,0.266,11.084,5.544,10.818,11.785c-0.073,1.707-6.76,172.864,39.05,363.547
								c45.811,190.681,129.52,340.125,130.36,341.611c3.073,5.44,1.156,12.341-4.283,15.415
								C1802.249,3461.002,1800.337,3461.473,1798.452,3461.473z"/>
						</g>
						<g>
							<circle style="fill:#591224;" cx="1593.1" cy="2846.688" r="11.301"/>
						</g>
						<g>
							
								<ellipse transform="matrix(0.5224 -0.8527 0.8527 0.5224 -2052.5862 3075.2036)" style="fill:#591224;" cx="1718.785" cy="3369.841" rx="11.301" ry="11.301"/>
						</g>
						<g>
							
								<ellipse transform="matrix(0.5224 -0.8527 0.8527 0.5224 -1810.0353 2821.1323)" style="fill:#591224;" cx="1613.264" cy="3026.293" rx="11.301" ry="11.301"/>
						</g>
						<g>
							<circle style="fill:#591224;" cx="1655.159" cy="3200.678" r="11.301"/>
						</g>
						<g>
							<circle style="fill:#E5E7EA;" cx="2226.419" cy="2971.21" r="246.861"/>
						</g>
						<g>
							<path style="fill:#BCC3CE;" d="M2284.085,3211.241c-132.566,31.848-265.849-49.799-297.697-182.365
								c60.156,91.592,94.095,40.023,90.226-52.497c82.854-19.905,190.123-69.506,275.591-87.857
								c71.037,109.964,99.006,80.075,114.245,25.021C2498.298,3046.11,2416.65,3179.393,2284.085,3211.241z"/>
						</g>
						<g>
							
								<ellipse transform="matrix(0.7071 -0.7071 0.7071 0.7071 -1448.8599 2444.5632)" style="fill:#E5E7EA;" cx="2226.419" cy="2971.21" rx="184.975" ry="184.975"/>
						</g>
						<g>
							<path style="fill:#591224;" d="M2225.936,3232.557c-47.583,0-94.381-13.091-135.984-38.577
								c-59.504-36.45-101.251-93.894-117.552-161.746c-16.301-67.849-5.204-137.986,31.249-197.49
								c36.451-59.504,93.893-101.252,161.743-117.551c140.061-33.652,281.395,52.92,315.046,192.991
								c33.65,140.066-52.926,281.394-192.993,315.046C2267.032,3230.133,2246.411,3232.557,2225.936,3232.557z M2226.421,2738.709
								c-17.93,0-36.127,2.09-54.308,6.46c-60.378,14.504-111.493,51.655-143.931,104.604
								c-32.437,52.952-42.312,115.364-27.806,175.74c14.506,60.381,51.655,111.497,104.607,143.933
								c52.949,32.437,115.361,42.305,175.741,27.808l0,0c124.641-29.946,201.682-155.71,171.738-280.352
								C2426.886,2810.445,2331.398,2738.709,2226.421,2738.709z"/>
						</g>
						<g>
							<circle style="fill:#31C0FF;" cx="2226.419" cy="2971.21" r="166.86"/>
						</g>
						<g>
							<path style="fill:#1E8DD8;" d="M2387.981,3013.065c-0.668-8.673-2.057-17.377-4.136-26.099
								c-21.524-89.611-111.63-144.806-201.241-123.283c-62.05,14.906-107.569,62.717-122.567,120.425
								c-6.356-80.369,46.495-155.711,127.418-175.143c89.579-21.538,179.685,33.657,201.208,123.269
								C2395.268,2959.83,2394.642,2987.419,2387.981,3013.065z"/>
						</g>
						<g style="opacity:0.4;">
							<path style="fill:#FFFFFF;" d="M2377.461,2900.281l-312.925,111.278c-0.126-0.439-0.238-0.912-0.35-1.384
								c-9.066-37.714-4.556-75.516,10.453-108.271l225.731-80.272C2333.574,2838.067,2361.166,2865.424,2377.461,2900.281z"/>
						</g>
						<g style="opacity:0.4;">
							<path style="fill:#FFFFFF;" d="M2375.279,3046.591l-216.687,77.052c-34.538-15.368-63.542-42.31-81.102-77.193
								l311.892-110.936C2397.977,2974.54,2392.085,3013.427,2375.279,3046.591z"/>
						</g>
						<g>
							<path style="fill:#591224;" d="M2226.088,3149.451c-32.451,0-64.366-8.928-92.74-26.309
								c-40.582-24.861-69.055-64.035-80.172-110.313c-22.949-95.525,36.096-191.914,131.622-214.863
								c95.535-22.959,191.915,36.094,214.865,131.624c11.117,46.274,3.549,94.109-21.311,134.69
								c-24.861,40.583-64.037,69.055-110.311,80.171C2254.119,3147.796,2240.051,3149.451,2226.088,3149.451z M2226.417,2815.645
								c-11.996,0-24.169,1.396-36.334,4.319c-83.396,20.037-134.944,104.187-114.908,187.583
								c9.706,40.398,34.562,74.6,69.991,96.301c35.43,21.704,77.19,28.306,117.588,18.606l0,0
								c40.399-9.707,74.6-34.563,96.304-69.992c21.703-35.427,28.311-77.188,18.605-117.588
								C2360.549,2863.643,2296.656,2815.645,2226.417,2815.645z"/>
						</g>
						<g style="opacity:0.5;">
							<path style="fill:#FFFFFF;" d="M2986.647,2739.996c9.882-2.021,36.564-1.993,44.746,12.939s-13.475,32.385-40.141,32.438
								c-20.574,0.04-34.049-2.839-37.135-13.932C2950.788,2759.475,2969.545,2743.493,2986.647,2739.996z"/>
						</g>
					</g>
					<g>
						<g>
							<path style="fill:#B07E4F;" d="M1538.978,2642.424c0,0-354.661,18.977-446.038-283.244
								c-62.712-207.417,115.685-396.117,39.582-532.081c-91.215-162.963-277.011,17.571-349.001-143.608
								c-46.613-104.362,176.352-235.484,365.285-154.862c199.664,85.202,257.883,279.525,191.226,461.093
								c-45.316,123.438-78.634,250.853-61.039,325.333c25.776,109.112,153.612,207.669,293.072,187.89"/>
						</g>
						<g>
							<path style="fill:#D3613C;" d="M1538.998,2642.436c0,0-354.697,18.973-446.04-283.26
								c-62.703-207.407,115.659-396.11,39.559-532.069c-91.221-162.974-277,17.542-349.004-143.609
								c-12.275-27.506-5.825-56.897,13.796-83.772c0,0,0,0,0.037-0.021c54.85-75.015,212.367-130.438,351.458-71.077
								c199.642,85.196,257.909,279.531,191.207,461.091c-45.312,123.449-78.624,250.84-61.023,325.344
								c18.372,77.769,88.617,150.172,177.927,178.153c35.996,11.3,75.105,15.382,115.148,9.725L1538.998,2642.436z"/>
						</g>
						<g style="opacity:0.3;">
							<path style="fill:#FFFFFF;" d="M1310.796,1990.275c42.466-100.827,45.907-330.133-144.895-424.07
								c-169.781-83.569-365.342,31.605-368.555,33.499c54.85-75.015,212.367-130.438,351.458-71.077
								c199.642,85.196,257.909,279.531,191.207,461.091c-45.312,123.449-78.624,250.84-61.023,325.344
								C1235.818,2210.139,1272.501,2081.23,1310.796,1990.275z"/>
						</g>
						<g style="opacity:0.25;">
							<path style="fill:#591224;" d="M1538.998,2642.436c0,0-354.697,18.973-446.04-283.26
								c-62.703-207.407,115.659-396.11,39.559-532.069c-91.221-162.974-277,17.542-349.004-143.609
								c-18.96-42.536,6.759-89.483,56.73-124.751c-17.098,23.062-24.121,49.029-17.497,75.617
								c36.089,144.334,256.652-13.065,355.03,167.412c74.564,136.818-86.418,365.58-39.559,532.068
								c60.691,215.735,228.293,178.672,298.594,152.19c41.306,16.585,87.608,23.652,135.253,16.908L1538.998,2642.436z"/>
						</g>
						<g>
							<path style="fill:#591224;" d="M1525.956,2657.071c-29.213,0-100.842-3.071-180.239-29.275
								c-135.599-44.753-227.77-136.201-266.547-264.453c-33.147-109.634-1.619-213.821,26.199-305.742
								c26.302-86.919,49.019-161.985,14.6-223.477c-41.367-73.906-103.408-69.619-169.095-65.083
								c-65.88,4.551-140.559,9.712-180.486-79.683c-16.598-37.161-5.154-79.79,31.399-116.96
								c70.653-71.846,221.886-112.813,352.666-57.002c98.573,42.066,168.867,112.097,203.282,202.524
								c31.973,84.009,30.482,182.297-4.198,276.76c-53.916,146.86-74.851,256.502-60.543,317.065
								c23.38,98.97,142.916,195.996,277.051,176.956c7.865-1.111,15.149,4.356,16.263,12.222
								c1.116,7.869-4.357,15.149-12.223,16.265c-151.71,21.533-282.305-85.432-309.092-198.826
								c-15.831-67.014,4.872-179.253,61.534-333.599c69.229-188.569-4.46-366.56-183.368-442.903
								c-119.484-50.984-256.968-14.255-320.858,50.71c-16.343,16.619-41.405,49.766-25.645,85.054
								c31.731,71.035,87.577,67.175,152.234,62.712c68.397-4.714,145.914-10.08,196.185,79.734
								c40.394,72.168,14.862,156.538-12.168,245.862c-27.937,92.319-56.825,187.781-26.196,289.084
								c36.373,120.303,119.532,202.791,247.166,245.171c96.462,32.031,183.477,27.922,184.342,27.871
								c7.899-0.449,14.702,5.674,15.121,13.606c0.419,7.929-5.663,14.699-13.593,15.124
								C1538.934,2656.834,1534.087,2657.071,1525.956,2657.071z"/>
						</g>
					</g>
					<g>
						<g>
							<path style="fill:#F8D5B5;" d="M1683.956,3005.877c0,0-100.974,9.849-99.199,64.386
								c0.758,23.286,17.656,41.816,66.124,39.423c37.163-1.835,77.577-5.982,113.934,19.18
								c20.451,14.154,46.224,47.085,75.942,64.327c23.114,13.411,56.48,18.629,75.855-4.458c0,0,46.285,28.06,68.662-9.06
								c0,0,47.088,8.604,47.229-36.667c0.144-46.285-117.739-124.535-180.03-132.359
								C1802.605,3004.385,1683.956,3005.877,1683.956,3005.877z"/>
						</g>
						<g>
							<path style="fill:#E1B189;" d="M1584.754,3070.252c0.768,23.301,17.661,41.827,66.121,39.449
								c37.17-1.848,77.574-5.996,113.931,19.159c20.467,14.159,46.213,47.093,75.964,64.331
								c23.108,13.417,56.48,18.653,75.828-4.465c0,0,46.298,28.078,68.686-9.065c0,0,47.074,8.633,47.202-36.646
								c0.021-6.167-2.041-12.875-5.846-19.96c-10.842,24.467-43.718,18.458-43.718,18.458
								c-22.383,37.104-68.686,9.065-68.686,9.065c-19.344,23.078-52.716,17.842-75.828,4.465
								c-29.747-17.278-55.492-50.211-75.964-64.331c-36.352-25.194-76.756-21.046-113.926-19.198
								c-33.241,1.626-51.631-6.58-60.128-19.391C1585.877,3057.537,1584.525,3063.536,1584.754,3070.252z"/>
						</g>
						<g>
							<path style="fill:#591224;" d="M1880.564,3216.661c-15.782,0.002-32.053-5.107-45.824-13.098
								c-18.755-10.881-35.571-27.134-50.408-41.472c-9.633-9.309-18.732-18.101-26.34-23.367
								c-30.5-21.109-65.221-19.26-98.802-17.466l-7.717,0.4c-28.853,1.436-50.253-4.089-63.608-16.396
								c-9.418-8.677-14.635-20.645-15.089-34.612c-2.115-65.017,105.438-76.257,110.018-76.704
								c0.337-0.034,0.674-0.051,1.013-0.056c4.879-0.063,120.048-1.428,170.16,4.864c64.72,8.13,190.697,88.928,190.525,144.292
								c-0.065,20.723-8.665,32.207-15.867,38.193c-12.323,10.244-28.092,11.438-37.533,11.05
								c-6.949,8.728-15.79,14.456-26.365,17.061c-17.563,4.326-35.509-1.507-45.758-6.023
								C1907.905,3212.718,1894.423,3216.661,1880.564,3216.661z M1687.794,3096.265c27.635,0,56.643,3.918,83.843,22.742
								c9.219,6.382,19,15.835,29.357,25.842c13.851,13.386,29.552,28.56,45.78,37.976c14.773,8.57,44.175,17.839,60.654-1.797
								c3.802-4.526,10.339-5.61,15.398-2.544c3.673,2.195,36.597,20.859,52.18-4.998c2.573-4.268,7.528-6.494,12.422-5.603
								c4.529,0.769,18.145,1.399,25.935-5.139c4.783-4.014,7.122-10.483,7.151-19.773c0.112-36.118-107.631-112.654-169.536-120.43
								c-46.704-5.864-157.214-4.783-166.285-4.685c-6.787,0.805-89.271,11.538-87.953,52.014
								c0.247,7.607,2.657,13.416,7.371,17.756c8.331,7.678,24.298,11.155,46.179,10.085l7.623-0.398
								C1667.578,3096.8,1677.594,3096.265,1687.794,3096.265z"/>
						</g>
						<g>
							<path style="fill:#591224;" d="M1850.907,3089.269c37.803,19.927,89.32,53.738,79.377,103.942
								c-1.404,8.308-9.522,13.892-17.771,11.903c-9.117-2.022-13.949-12.64-9.573-20.855
								C1917.727,3151.258,1874.484,3109.29,1850.907,3089.269L1850.907,3089.269z"/>
						</g>
						<g>
							<path style="fill:#591224;" d="M1914.329,3076.05c32.367,18.598,78.074,46.66,84.726,86.793
								c1.554,11.579-2.276,35.347-19.132,29.337c-6.151-2.573-9.052-9.646-6.478-15.798
								C1994.131,3144.986,1937.098,3094.714,1914.329,3076.05L1914.329,3076.05z"/>
						</g>
					</g>
					<g>
						
							<path style="fill:none;stroke:#591224;stroke-width:18.8679;stroke-linecap:round;stroke-linejoin:round;stroke-miterlimit:10;" d="
							M2087.174,2805.451"/>
					</g>
					<g>
						<path style="fill:#D3613C;" d="M1645.775,2828.043c2.974-8.44,6.186-16.736,9.735-24.888
							C1652.585,2811.547,1649.324,2819.795,1645.775,2828.043z"/>
					</g>
					<g>
						<path style="fill:#D3613C;" d="M2070.594,2765.656c-1.918,3.693-3.885,7.433-5.946,11.173
							c-47.377,23.929-99.023,45.028-149.614,31.937c-29.875-7.721-55.578-26.71-84.59-37.116
							c-6.185-2.254-12.947-4.076-19.325-2.254c-6.329,1.823-11.076,7.001-15.345,12.036
							c-26.134,31.074-47.185,66.367-62.051,104.059c-9.447,23.881-16.496,49.68-12.563,75.047
							c3.883,25.367,21.051,50.063,45.986,56.202c14.242,3.5,29.156,0.767,43.59-1.966c20.236-3.836,40.424-7.72,60.661-11.509
							c-23.257,14.626-48.576,25.799-75.382,32.608c-42.774,10.885-82.96,10.79-114.608-0.336
							c-39.993-14.002-64.737-54.379-60.182-96.482c4.028-37.548,11.988-75.431,24.552-111.012c3.55-8.248,6.81-16.496,9.735-24.888
							c6.138-14.242,13.091-27.957,20.908-40.952c12.18-20.188,26.422-38.698,42.966-54.811l-172.632-153.451
							c53.133-54.427,116.191-98.592,181.216-129.906c6.569,13.283,13.906,26.135,22.202,38.459
							c21.052,31.266,47.761,58.216,74.328,84.973c28.868,29.156,57.784,58.263,86.7,87.371
							c14.913,15.01,29.779,30.019,44.693,45.028C1989.84,2714.01,2025.709,2749.4,2070.594,2765.656z"/>
					</g>
					<g>
						<path style="fill:#D3613C;" d="M2135.187,2577.822c-12.036,64.018-32.895,126.741-64.593,187.833
							c-44.885-16.256-80.754-51.646-114.704-85.788c-14.914-15.009-29.78-30.019-44.693-45.028
							c-28.916-29.108-57.832-58.216-86.7-87.371c-26.566-26.758-53.276-53.708-74.328-84.973
							c-8.296-12.324-15.633-25.176-22.202-38.459c102.62-49.536,210.131-67.135,291.029-42.631
							c44.261,13.379,78.835,43.878,99.119,82.384c8.105,15.345,13.907,31.985,17.12,49.296c0.048,0.048,0.048,0.096,0,0.144
							C2139.167,2534.089,2139.312,2555.956,2135.187,2577.822z"/>
					</g>
					<g>
						<g>
							<path style="fill:#D3613C;" d="M2135.283,2513.229l-275.924,149.71l-182.942,99.264
								c-472.533-62.004-189.608-752.532,122.089-973.118l311.697,124.679c24.265,43.589-3.501,179.585-10.071,324.884
								C2095.817,2334.027,2100.661,2433.387,2135.283,2513.229z"/>
						</g>
						<g>
							<path style="fill:#F8D5B5;" d="M2135.283,2513.229l-275.924,149.71c-0.335-0.767-0.719-1.534-1.055-2.302
								c-52.557-115.568-64.305-249.166-32.751-372.119l36.972-71.306c14.865-36.493,30.354-73.896,57.496-102.428
								c27.141-28.58,69.004-46.658,106.552-34.718c10.357,3.261,20.044,8.728,28.244,15.921
								c21.1,18.462,30.93,46.802,35.773,74.471c3.981,22.634,5.179,45.748,9.543,68.19
								C2095.817,2334.027,2100.661,2433.387,2135.283,2513.229z"/>
						</g>
						<g>
							<path style="fill:#591224;" d="M2122,2031.617c-0.189,158.558-35.215,324.767,24.268,476.809
								c2.499,5.741,0.142,12.438-5.269,15.34c0,0-458.865,248.973-458.865,248.973c-2.305,1.257-4.858,1.682-7.278,1.349
								c-78.557-9.838-158.836-42.691-206.67-108.626c-48.21-64.874-59.532-149.168-53.551-227.721
								c18.681-203.3,126.645-403.431,260.958-554.205c35.049-38.241,73.309-73.89,115.986-104.237
								c3.409-2.424,7.656-2.804,11.281-1.386c0.45,0.184,311.722,124.69,312.151,124.862c3.855,1.308,5.663,4.987,7.285,8.282
								c3.047,5.871,0.757,13.102-5.114,16.149c-6.201,3.259-13.781,0.404-16.58-5.939c0,0-0.848-1.625-0.848-1.625l5.996,5.253
								l-311.696-124.678l11.377-1.345c-81.963,58.761-149.102,137.066-205.47,220.461
								c-100.455,150.998-203.896,385.716-145.963,567.177c32.591,100.394,122.917,151.645,223.979,163.806
								c-0.001,0.001-7.278,1.352-7.278,1.352l458.865-248.975l-5.281,15.306c-8.764-19.174-15.4-39.167-20.699-59.374
								c-25.38-100.352-19.056-205.362-8.5-307.053c4.537-40.51,10.734-80.641,17.517-120.689c0.425-2.578,2.86-4.323,5.438-3.898
								C2120.339,2027.363,2121.976,2029.364,2122,2031.617L2122,2031.617z"/>
						</g>
						<g style="opacity:0.25;">
							<g>
								<path style="fill:#591224;" d="M1546.751,2553.942l172.632,153.451c-16.544,16.112-30.786,34.622-42.966,54.811
									c-7.817,12.995-14.77,26.71-20.908,40.952c4.795-13.811,8.584-27.861,10.599-42.439c0.095-0.384,0.143-0.815,0.191-1.199
									c-99.455-10.981-177.14-100.606-200.157-197.952c-22.97-97.393-0.911-199.965,33.137-294.002
									c28.1-77.588,65.072-153.307,120.362-214.543l3.932-2.494c16.64,88.138,37.691,175.413,63.106,261.442
									c11.269,38.171,23.594,76.534,41.288,112.067C1662.942,2455.349,1599.884,2499.514,1546.751,2553.942z"/>
							</g>
						</g>
					</g>
					<g style="opacity:0.25;">
						<g>
							<path style="fill:#591224;" d="M2080.281,2768.821c-5.131,2.685-10.358,5.371-15.633,8.008
								c2.062-3.74,4.029-7.481,5.946-11.173C2073.759,2766.807,2077.02,2767.862,2080.281,2768.821z"/>
						</g>
					</g>
					<g>
						<path style="fill:#D3613C;" d="M2064.648,2776.829c-34.718,64.114-81.617,126.453-142.949,186.635
							c-15.345,15.009-32.177,28.436-50.255,39.753c-0.048,0-0.048,0.048-0.048,0.048c-20.236,3.788-40.424,7.672-60.661,11.509
							c-14.434,2.733-29.348,5.467-43.59,1.966c-24.935-6.138-42.103-30.834-45.986-56.202
							c-3.932-25.367,3.116-51.166,12.563-75.047c14.866-37.691,35.917-72.985,62.051-104.059
							c4.268-5.035,9.016-10.214,15.345-12.036c6.378-1.822,13.14,0,19.325,2.254c29.012,10.406,54.715,29.395,84.59,37.116
							C1965.625,2821.857,2017.27,2800.758,2064.648,2776.829z"/>
					</g>
					<g>
						<g>
							<path style="fill:#D3613C;" d="M1546.751,2553.942c137.067-140.33,340.094-212.522,472.243-172.536
								c83.245,25.188,132.297,110.957,116.215,196.429c-25.479,135.418-90.426,264.892-213.512,385.609
								c-35.088,34.413-78.037,60.301-125.664,72.429c-42.777,10.893-82.977,10.789-114.614-0.313
								c-39.993-14.033-64.748-54.384-60.215-96.524c9.276-86.238,39.182-174.303,98.179-231.644"/>
						</g>
						<g>
							<path style="fill:#591224;" d="M1542.94,2550.219c99.485-121.787,322.498-225.028,479.059-179.58
								c81.148,23.257,135.694,108.165,127.255,191.468c-1.291,14.491-4.999,30.295-7.888,44.561
								c-28.524,130.704-98.798,249.835-191.447,345.183c-47.898,52.624-109.338,91.983-180.946,101.323
								c-64.133,9.644-136.462-6.191-155.998-76.599c-6.067-20.421-3.332-42.036-0.015-62.497
								c11.86-72.771,39.316-166.333,103.251-209.948c4.242-2.845,9.236,2.497,6.343,6.527
								c-20.161,32.805-40.456,63.048-55.524,98.189c-16.646,38.808-26.758,80.775-31.902,122.964
								c-7.431,38.03,13.028,78.37,50.26,91.23c79.763,24.343,168.348-11.939,226.05-68.386
								c99.135-96.396,174.631-218.219,205.307-353.593c1.415-7.655,4.597-20.237,5.753-27.856
								c3.97-22.137,3.311-45.009-2.122-66.848c-19.199-76.745-82.691-119.241-159.713-122.897
								c-75.384-5.038-151.276,15.888-219.773,47.08c-70.511,31.371-130.15,79.23-190.326,127.127
								C1545.852,2561.741,1538.95,2555.131,1542.94,2550.219L1542.94,2550.219z"/>
						</g>
						<g style="opacity:0.25;">
							<g>
								<path style="fill:#591224;" d="M2070.594,2765.656c-1.918,3.693-3.885,7.433-5.946,11.173
									c-47.377,23.929-99.023,45.028-149.614,31.937c-29.875-7.721-55.578-26.71-84.59-37.116
									c-6.185-2.254-12.947-4.076-19.325-2.254c-6.329,1.823-11.076,7.001-15.345,12.036
									c-26.134,31.074-47.185,66.367-62.051,104.059c-9.447,23.881-16.496,49.68-12.563,75.047
									c3.883,25.367,21.051,50.063,45.986,56.202c14.242,3.5,29.156,0.767,43.59-1.966c20.236-3.836,40.424-7.72,60.661-11.509
									c-23.257,14.626-48.576,25.799-75.382,32.608c-42.774,10.885-82.96,10.79-114.608-0.336
									c-39.993-14.002-64.737-54.379-60.182-96.482c4.028-37.548,11.988-75.431,24.552-111.012
									c3.55-8.248,6.81-16.496,9.735-24.888c6.138-14.242,13.091-27.957,20.908-40.952c12.18-20.188,26.422-38.698,42.966-54.811
									l-172.632-153.451c53.133-54.427,116.191-98.592,181.216-129.906c6.569,13.283,13.906,26.135,22.202,38.459
									c21.052,31.266,47.761,58.216,74.328,84.973c28.868,29.156,57.784,58.263,86.7,87.371
									c14.913,15.01,29.779,30.019,44.693,45.028C1989.84,2714.01,2025.709,2749.4,2070.594,2765.656z"/>
							</g>
						</g>
					</g>
					<g>
						<g>
							<path style="fill:#F8D5B5;" d="M2427.751,2774.479c-14.961,15.489-45.604,10.358-80.178,0.048
								c14.05,4.891,25.894,13.283,35.917,24.552l0.048,0.048c5.946,6.713,4.699,16.784-2.59,22.106
								c-21.339,15.585-69.772,11.125-117.678,7.001c-7.193-0.576-14.482-0.192-21.531,1.342
								c-61.667,13.235-112.258,5.323-151.772-23.689l44.405-155.561l17.118-60.038c25.416-8.775,56.394-12.132,90.584-12.372
								c28.1-2.062,54.044-5.706,75.863-12.516c4.891-1.535,10.357-1.343,14.673,1.391c17.12,10.885,7.193,42.87-13.81,63.874
								c41.815,8.344,87.275,20.38,107.751,45.556c6.186,7.576,4.843,19.037-3.117,24.648c-13.811,9.782-36.301,9.686-61.477,6.521
								c27.573,12.084,54.474,28.628,67.231,48.529C2432.93,2761.723,2432.546,2769.54,2427.751,2774.479z"/>
						</g>
						<g>
							<path style="fill:#E1B189;" d="M2380.948,2821.234c-21.339,15.585-69.772,11.125-117.678,7.001
								c-7.193-0.576-14.482-0.192-21.531,1.342c-61.667,13.235-112.258,5.323-151.772-23.689l44.405-155.561
								c11.7-8.871,23.833-17.263,29.347-30.498l5.227-6.522c27.429,29.875,40.089,72.697,33.327,112.69
								c-3.02,18.078-9.255,38.507,1.631,53.228c11.22,15.153,33.471,14.578,52.317,14.865c22.442,0.336,44.837,4.028,66.224,10.838
								c10.885,3.453,21.771,7.769,33.135,8.009c10.934,0.24,22.778-4.316,27.957-13.811
								C2389.484,2805.841,2388.237,2815.911,2380.948,2821.234z"/>
						</g>
						<g>
							<path style="fill:#591224;" d="M2187.224,2847.733c-40.231,0-75.177-10.757-104.343-32.19
								c-4.037-2.966-5.803-8.132-4.429-12.949l61.51-215.571c1.073-3.762,3.912-6.763,7.609-8.04
								c24.508-8.481,55.266-12.751,94.021-13.049c30.254-2.229,54.064-6.147,72.78-11.98c8.698-2.713,17.7-1.712,24.697,2.741
								c8.038,5.113,12.885,13.235,14.011,23.486c1.404,12.773-3.492,28.521-12.751,42.817
								c37.993,8.694,75.896,21.526,95.533,45.659c5.099,6.267,7.389,14.47,6.284,22.505c-1.083,7.874-5.382,14.985-11.794,19.509
								c-6.318,4.458-13.669,7.231-21.577,8.826c12.155,8.516,23.175,18.523,30.519,29.961c6.78,10.559,5.554,24.585-2.914,33.352
								c-10.138,10.493-24.231,13.972-40.293,13.481c2.538,4.722,3.639,10.122,3.069,15.488
								c-0.806,7.581-4.861,14.556-11.129,19.136c-24.58,17.954-72.429,13.855-123.091,9.512l-2.675-0.227
								c-6.141-0.527-12.201-0.159-18.021,1.089C2224.21,2845.587,2205.189,2847.733,2187.224,2847.733z M2103.868,2800.902
								c35.505,22.903,80.984,28.613,135.339,16.946c8.143-1.746,16.592-2.268,25.099-1.536l2.676,0.227
								c41.985,3.599,89.568,7.678,106.899-4.983c1.118-0.818,1.377-1.797,1.431-2.307c0.085-0.798-0.175-1.543-0.77-2.209
								c-9.071-10.176-19.182-17.107-30.911-21.191c-6.154-2.141-9.469-8.806-7.466-15.007c2.002-6.201,8.588-9.676,14.835-7.801
								c23.705,7.073,56.559,15.088,68.136,3.11c0.787-0.815,0.78-2.493-0.02-3.738c-9.703-15.11-31.715-30.752-61.979-44.043
								c-5.452-2.395-8.32-8.428-6.736-14.168c1.586-5.74,7.144-9.453,13.052-8.704c17.058,2.141,41.117,4.016,53.074-4.416
								c1.305-0.921,1.735-2.241,1.864-3.184c0.204-1.479-0.209-2.976-1.129-4.109c-18.265-22.449-63.472-33.899-100.813-41.367
								c-4.336-0.867-7.842-4.05-9.122-8.281c-1.282-4.231-0.129-8.825,2.997-11.95c13.606-13.608,19.905-30.449,18.922-39.39
								c-0.413-3.752-1.846-5.11-3.047-5.876c-0.991-0.63-2.832-0.659-4.696-0.081c-20.568,6.411-46.263,10.674-78.556,13.03
								c-0.262,0.02-0.526,0.032-0.789,0.032c-33.159,0.232-59.712,3.457-80.895,9.844L2103.868,2800.902z"/>
						</g>
						<g>
							<path style="fill:#591224;" d="M2328.998,2636.708c-8.809,4.994-20.919,8.417-30.179,2.377
								c-3.087-1.721-2.833-6.564,0.358-7.988c6.901-3.324,12.276-8.81,17.189-14.769c4.32-5.242,12.072-5.989,17.314-1.669
								c6.437,5.113,5.746,15.591-1.223,19.874C2332.457,2634.534,2328.998,2636.708,2328.998,2636.708L2328.998,2636.708z"/>
						</g>
						<g>
							<path style="fill:#591224;" d="M2360.126,2719.695l-22.64-11.135c-2.52-1.24-3.558-4.287-2.319-6.808
								c1.064-2.741,5.271-3.122,7.61-3.95c9.158-2.088,19.439-4.008,27.93,0.376
								C2384.522,2705.862,2374.446,2726.183,2360.126,2719.695L2360.126,2719.695z"/>
						</g>
						<g>
							<path style="fill:#591224;" d="M2344.764,2782.954c-6.064,1.175-10.25-4.623-12.8-9.553c-2.265-5.007,3.01-8.441,7.091-9.285
								C2353.458,2758.561,2357.641,2778.66,2344.764,2782.954L2344.764,2782.954z"/>
						</g>
						<g>
							<path style="fill:#D3613C;" d="M2181.319,2657.617c-0.96,5.563-2.063,11.029-3.262,16.4
								c-12.227,55.242-36.396,99.839-72.889,124.631c-9.735,6.57-21.819,8.584-33.327,6.378
								c-164.336-31.793-326.179-108.375-426.353-285.61c-25.559-45.172-41.144-95.187-46.324-146.833
								c-10.597-105.689-2.876-211.522,23.018-317.595c1.918-7.912,3.933-15.825,6.09-23.737l201.404-76.725
								c35.965,47.953,8.68,222.456,59.606,376.434c19.085,57.592,55.866,107.895,104.443,144.292
								c68.285,51.262,139.257,84.781,177.859,138.777C2180.551,2626.639,2183.955,2642.368,2181.319,2657.617z"/>
						</g>
						<g>
							<path style="fill:#591224;" d="M1632.031,2032.264c-7.248,64.323-22.843,125.872-25.535,190.385
								c-3.073,63.309-2.656,127.777,9.833,190.075c27.009,120.473,119.885,229.678,223.714,293.386
								c66.99,41.38,144.328,68.067,221.357,83.752c0,0,7.792,1.619,7.792,1.619c10.198,2.781,20.709,2.353,29.073-3.484
								c24.754-17.046,41.524-42.563,53.19-70.464c7.774-19.061,13.306-39.083,16.984-59.413c2.91-12.747,0.533-26.048-6.952-36.674
								c-27.675-37.887-68.51-63.493-107.432-89.562c-26.849-17.879-55.007-36.034-80.178-56.649
								c-117.299-93.706-125.519-256.029-133.329-394.236c-1.177-21.438-2.78-42.777-4.512-63.689
								c-1.944-20.374-2.751-41.442-10.526-60.23c-1.083-2.557,0.112-5.506,2.668-6.589c1.926-0.816,4.078-0.335,5.484,1.044
								c29.129,31.592,27.36,87.625,30.883,128.056c2.489,43.031,4.929,85.698,10.391,127.863
								c13.933,110.67,43.497,202.636,139.709,267.797c52.699,38.546,112.622,68.128,156.574,118.185
								c17.417,18.17,27.968,44.061,21.917,69.182c-10.126,55.307-32.559,112.916-80.582,146.313
								c-14.064,9.911-32.526,11.678-48.32,7.432c0,0-8.002-1.714-8.002-1.714c-170.758-34.871-321.573-121.988-411.398-274.948
								c-49.368-76.242-60.746-164.06-60.529-253.096c-0.015-65.232,6.253-130.584,19.889-194.391
								c4.954-21.162,11.293-42.03,20.321-61.98c0.898-1.985,3.235-2.866,5.22-1.967
								C1631.318,2028.985,1632.201,2030.624,1632.031,2032.264L1632.031,2032.264z"/>
						</g>
						<g style="opacity:0.25;">
							<g>
								<path style="fill:#591224;" d="M2178.057,2674.017c-12.227,55.242-36.396,99.839-72.889,124.631
									c-9.735,6.57-21.819,8.584-33.327,6.378c-164.336-31.793-326.179-108.375-426.353-285.61
									c-25.559-45.172-41.144-95.187-46.324-146.833c-10.597-105.689-2.876-211.522,23.018-317.595l2.83,1.007
									c2.398-10.693,16.496-15.297,26.565-10.981c10.023,4.316,16.209,14.626,19.805,24.936
									c9.255,26.662,5.562,55.818,2.83,83.871c-7.385,76.677-6.378,154.122,2.973,230.56c3.693,30.019,8.68,59.99,18.655,88.522
									c19.085,54.715,56.009,102.045,99.694,140.167c43.686,38.075,94.181,67.615,145.539,94.468
									c41.959,21.963,86.939,42.727,134.221,40.856c47.283-1.822,96.674-33.711,102.477-80.658
									C2177.914,2669.845,2178.01,2671.907,2178.057,2674.017z"/>
							</g>
						</g>
					</g>
					<g>
						<path style="fill:#D3613C;" d="M1546.751,2553.942"/>
					</g>
					<g>
						<g>
							<g>
								<path style="fill:#F8D5B5;" d="M1671.149,1014.091c0,0,66.398-119.102-46.087-209.806
									c-108.046-87.125-241.194-21.378-292.444,67.5c-53.847,93.383-45.965,172.546,2.551,245.128
									c50.679,75.817,134.249,116.611,134.249,116.611"/>
							</g>
							<g>
								<path style="fill:#E1B189;" d="M1332.63,871.776c-53.86,93.404-45.987,172.569,2.521,245.139
									c50.694,75.797,134.282,116.594,134.282,116.594l43.192-46.986c-29.911-17.875-87.713-57.487-127.207-116.606
									c-49.266-73.723-60.257-153.605-14.401-246.385C1355.667,838.084,1342.566,854.499,1332.63,871.776z"/>
							</g>
							<g>
								<path style="fill:#F18375;" d="M1440.858,975.71c-4.064,7.194-7.432,14.217-10.127,21.164
									c-16.602,42.227-8.894,79.791,15.612,115.184c29.772,42.995,77.522,67.015,77.522,67.015l110-118.685
									c0,0,35.447-65.087-29.4-117.418c-24.551-19.803-50.908-26.428-75.529-24.244
									C1491.128,922.054,1457.473,946.272,1440.858,975.71z"/>
							</g>
							<g>
								<path style="fill:#F34A4A;" d="M1430.732,996.874c-16.602,42.227-8.894,79.791,15.612,115.184
									c29.772,42.995,77.522,67.015,77.522,67.015l110-118.685c0,0,35.447-65.087-29.4-117.418
									c-24.551-19.803-50.908-26.428-75.529-24.244c0,0,37.038,90.139-9.875,133.918
									C1475.382,1093.421,1446.374,1041.492,1430.732,996.874z"/>
							</g>
							<g>
								<path style="fill:#591224;" d="M1523.849,1193.487c-2.175,0-4.382-0.493-6.459-1.54
									c-2.083-1.05-51.372-26.228-82.887-71.707c-34.019-49.084-36.04-98.677-6.182-151.604
									c17.877-31.692,51.415-55.676,87.523-62.595c24.22-4.636,60.82-3.938,97.644,25.752
									c58.688,47.317,47.263,109.319,33.022,135.493c-3.798,6.978-12.535,9.558-19.512,5.762
									c-6.962-3.787-9.546-12.488-5.791-19.458c1.277-2.412,28.495-55.64-25.779-99.399c-28.246-22.773-55.925-23.384-74.17-19.89
									c-28.032,5.371-54.042,23.943-67.88,48.472c-24.229,42.949-22.712,81.423,4.771,121.082
									c27.246,39.314,71.758,62.18,72.205,62.407c7.079,3.591,9.922,12.241,6.34,19.326
									C1534.163,1190.597,1529.102,1193.487,1523.849,1193.487z"/>
							</g>
							<g>
								<path style="fill:#591224;" d="M1469.408,1247.913c-2.118,0-4.268-0.469-6.3-1.462
									c-3.555-1.733-87.661-43.396-139.899-121.543c-55.33-82.773-56.328-167.92-3.053-260.31
									c33.069-57.349,93.313-100.386,157.223-112.317c56.365-10.532,110.557,3.584,156.714,40.806
									c120.53,97.19,50.344,226.711,49.62,228.008c-3.867,6.938-12.633,9.426-19.569,5.562c-6.931-3.865-9.424-12.61-5.575-19.546
									c2.489-4.519,58.816-109.898-42.538-191.626c-39.408-31.777-85.529-43.865-133.373-34.919
									c-55.028,10.271-109.031,48.899-137.578,98.406c-47.919,83.103-47.268,156.169,2.05,229.946
									c47.965,71.76,127.799,111.289,128.6,111.68c7.14,3.484,10.103,12.097,6.617,19.238
									C1479.854,1244.942,1474.734,1247.913,1469.408,1247.913z"/>
							</g>
						</g>
						<g>
							<g>
								<path style="fill:#F8D5B5;" d="M2867.333,1350.55c0,0,62.91-120.98,200.544-76.971
									c132.204,42.272,150.576,189.628,104.567,281.328c-48.341,96.348-118.779,133.329-206.081,132.76
									c-91.193-0.595-171.243-47.926-171.243-47.926"/>
							</g>
							<g>
								<path style="fill:#E1B189;" d="M3172.445,1554.892c-48.352,96.371-118.786,133.36-206.073,132.791
									c-91.185-0.619-171.247-47.962-171.247-47.962l15.464-61.92c31.385,15.139,96.267,41.604,167.364,42.048
									c88.667,0.567,161.416-34.213,213.65-123.557C3187.9,1517.117,3181.403,1537.089,3172.445,1554.892z"/>
							</g>
							<g>
								<path style="fill:#F18375;" d="M3026.106,1521.718c-3.771,7.352-7.781,14.029-12.099,20.102
									c-26.123,37.099-61.729,51.334-104.767,50.348c-52.283-1.199-98.615-27.852-98.615-27.852l38.568-157.158
									c0,0,34.841-65.414,114.22-40.065c30.045,9.603,50.081,27.965,61.805,49.724
									C3043.245,1450.217,3041.544,1491.645,3026.106,1521.718z"/>
							</g>
							<g>
								<path style="fill:#F34A4A;" d="M3014.007,1541.819c-26.123,37.099-61.729,51.334-104.767,50.348
									c-52.283-1.199-98.615-27.852-98.615-27.852l38.568-157.158c0,0,34.841-65.414,114.22-40.065
									c30.045,9.603,50.081,27.965,61.805,49.724c0,0-95.646,18.677-106.385,81.938
									C2908.823,1557.665,2968.145,1553.31,3014.007,1541.819z"/>
							</g>
							<g>
								<path style="fill:#591224;" d="M2913.505,1606.612c-1.519,0-3.04-0.017-4.581-0.054
									c-55.314-1.292-103.461-28.591-105.483-29.753c-6.89-3.958-9.268-12.752-5.311-19.641c3.958-6.885,12.753-9.26,19.64-5.31
									c0.419,0.239,44.006,24.824,91.826,25.94c48.212,1.079,81.195-18.779,103.724-62.646
									c12.866-25.051,14.061-56.987,3.121-83.35c-7.122-17.158-22.865-39.934-57.423-50.986
									c-66.508-21.252-95.968,30.95-97.188,33.184c-3.799,6.946-12.512,9.553-19.476,5.791c-6.965-3.76-9.602-12.407-5.878-19.392
									c14.016-26.292,59.501-69.958,131.306-46.985c45.054,14.407,65.78,44.582,75.233,67.361
									c14.093,33.955,12.521,75.156-4.103,107.522C3011.866,1580.953,2970.806,1606.61,2913.505,1606.612z"/>
							</g>
							<g>
								<path style="fill:#591224;" d="M2968.341,1702.059c-0.69,0-1.378-0.002-2.072-0.007
									c-93.997-0.613-175.066-47.915-178.47-49.929c-6.84-4.043-9.105-12.866-5.061-19.705c4.043-6.839,12.867-9.109,19.705-5.061
									c0.76,0.447,77.985,45.361,164.015,45.925c0.634,0.002,1.277,0.005,1.908,0.005c87.721,0,148.511-39.704,191.221-124.831
									c25.629-51.079,28.164-117.427,6.46-169.028c-18.871-44.866-54.332-76.729-102.55-92.146
									c-124.657-39.854-181.058,65.405-183.398,69.907c-3.666,7.046-12.351,9.792-19.401,6.125
									c-7.05-3.665-9.792-12.351-6.127-19.402c0.686-1.313,70.208-131.179,217.688-84.038
									c56.476,18.059,98.077,55.542,120.31,108.398c25.206,59.929,22.423,133.916-7.264,193.086
									C3137.81,1656.016,3066.824,1702.059,2968.341,1702.059z"/>
							</g>
						</g>
						<g>
							<g>
								<path style="fill:#D3613C;" d="M2875.06,1503.762c117.102,278.609-149.998,502.839-552.231,475.074
									c-75.432-5.179-155.657-19.277-239-43.494l-139.065-47.953c-63.778-19.805-122.617-44.932-176.037-74.04
									c-360.13-196.081-473.636-573.523-198-736.372c215.79-680.938,724.096-493.92,791.231-532.283
									c60.661-28.436,108.183-70.396,134.27-134.269c44.021,41.096,52.749,110.293,14.386,163.042
									c34.094,2.398,64.21-4.987,81.521-43.158c33.567,28.772,38.89,79.411,9.591,115.088
									C2913.423,827.62,3014.125,1163.293,2875.06,1503.762z"/>
							</g>
							<g style="opacity:0.4;">
								<g>
									<path style="fill:#FFFFFF;" d="M2879.855,1532.535c9.279,22.078,16.129,43.812,20.707,65.108
										c-2.874-23.799-8.655-48.224-17.515-73.136C2881.984,1527.183,2880.949,1529.858,2879.855,1532.535z"/>
								</g>
								<g>
									<path style="fill:#FFFFFF;" d="M1575.523,1105.749c215.79-680.938,724.096-493.92,791.231-532.282
										c60.661-28.436,108.183-70.396,134.27-134.27c16.279,15.198,27.716,34.244,33.745,54.875
										c-1.45-31.387-14.894-61.572-38.541-83.647c-26.086,63.874-73.609,105.833-134.27,134.269
										c-67.135,38.363-575.441-148.656-791.231,532.283c-129.093,76.27-172.822,199.61-145.842,329.344
										C1409.706,1287.308,1456.017,1176.356,1575.523,1105.749z"/>
								</g>
								<g>
									<path style="fill:#FFFFFF;" d="M2486.638,592.648c2.058,1.044,48.083,23.484,84.86-1.802
										c14.587-10.029,21.93-23.588,25.433-31.766c11.208,9.608,19.188,21.679,23.861,34.792
										c0.363-23.744-9.558-47.194-28.656-63.564c-13.729,30.273-35.527,41.146-60.963,43.168
										c-2.352-0.929-13.111-4.88-25.354-0.01C2492.444,578.788,2487.464,590.595,2486.638,592.648z"/>
								</g>
							</g>
							<g style="opacity:0.25;">
								<g>
									<path style="fill:#591224;" d="M2534.875,501.551c0.001-0.144,0.003-0.288,0.005-0.433c-0.1,0.138-0.188,0.28-0.289,0.418
										C2534.687,501.543,2534.78,501.545,2534.875,501.551z"/>
								</g>
								<g>
									<path style="fill:#591224;" d="M2899.037,1431.832c0.364,0.866,0.679,1.725,1.036,2.59
										c2.293-7.295,4.48-14.583,6.554-21.863C2904.173,1418.981,2901.662,1425.406,2899.037,1431.832z"/>
								</g>
								<g>
									<path style="fill:#591224;" d="M1768.728,1813.349c-283.644-154.41-414.222-421.318-322.294-607.33
										c-17.216,91.303,8.919,194.211,72.026,291.029C1543.443,1609.787,1634.506,1724.012,1768.728,1813.349z"/>
								</g>
								<g>
									<path style="fill:#591224;" d="M2898.222,1683.108c-34.623,188.217-264.654,317.164-575.393,295.729
										c147.601-1.63,275.108-42.007,355.19-114.177C2782.127,1825.194,2859.235,1761.704,2898.222,1683.108z"/>
								</g>
							</g>
							<g>
								<path style="fill:#E1B189;" d="M2678.019,1864.66c-80.082,72.17-207.589,112.547-355.19,114.177
									c-75.432-5.179-155.657-19.277-239-43.494l-139.065-47.953c-63.778-19.805-122.617-44.932-176.037-74.04
									c-134.221-89.337-225.285-203.562-250.268-316.301c59.846,91.927,153.115,178.435,274.245,244.37
									c53.42,29.108,112.258,54.235,176.037,74.04l139.065,47.953c83.342,24.216,163.568,38.315,239,43.494
									C2473.115,1915.634,2586.093,1899.522,2678.019,1864.66z"/>
							</g>
							<g>
								<path style="fill:#F8D5B5;" d="M2712.066,1495.371c50.83,83.535,68.382,171.385,42.966,252.139
									c-14.194,45.172-40.76,84.446-77.013,117.15c-91.926,34.862-204.905,50.974-331.213,42.247
									c-75.432-5.179-155.658-19.277-239-43.494l-139.065-47.953c-63.778-19.805-122.617-44.932-176.037-74.04
									c-121.13-65.936-214.399-152.444-274.245-244.37c-10.359-46.755-9.352-93.269,4.603-137.626
									c25.798-81.856,91.974-144.339,183.374-183.565c-0.959-9.639-1.439-19.421-1.439-29.347
									c0-168.173,136.331-304.504,304.504-304.504c136.379,0,251.851,89.673,290.598,213.249
									c49.391-34.67,109.573-55.002,174.55-55.002c168.173,0,304.504,136.331,304.504,304.504
									C2779.153,1376.926,2754.074,1443.197,2712.066,1495.371z"/>
							</g>
							<g>
								<path style="fill:#591224;" d="M1943.497,1891.467c-46.861-8.289-91.87-24.599-134.908-44.681
									c-207.642-96.643-423.432-299.177-404.634-546.574c7.109-73.971,44.197-143.996,99.997-192.781
									c18.364-16.349,38.436-30.549,59.457-42.839l-6.395,8.039c26.757-84.428,61.582-166.933,108.453-243.015
									c150.814-240.903,357.026-312.565,631.937-293.781c18.512-0.173,41.617,2.888,58.234-4.065
									c56.355-25.649,104.379-68.707,127.269-126.779c3.532-9.18,16.098-11.974,23.144-5.076
									c24.512,22.724,39.935,54.794,42.676,88.012c3.005,33.182-6.914,67.196-26.478,94c0,0-10.629-22.812-10.629-22.812
									c30.099,2.924,55.328-6.135,67.445-34.82c3.316-7.216,11.854-10.379,19.072-7.063
									c43.157,30.753,48.792,97.635,14.71,137.289c0.001,0-3.86-21.543-3.86-21.543
									c226.605,128.481,364.036,370.474,339.135,632.263c-6.815,84.016-28.183,166.301-59.744,243.961l-0.056-11.013
									c4.262,11.448,8.895,22.767,12.808,34.361c29.445,90.134,19.879,187.936-35.295,266.362
									c0.001,0-10.716,15.147-10.716,15.147c-3.61,4.609-14.314,16.711-17.919,21.191c-5.903,6.469-16.627,16.593-22.766,22.867
									c-122.27,109.281-293.359,140.589-452.592,135.884c-47.773-1.726-95.254-7.18-142.26-14.98
									c-46.989-7.891-93.264-20.239-137.157-38.857c-2.569-1.089-3.768-4.055-2.678-6.622c0.935-2.21,3.232-3.373,5.482-3.017
									c35,4.801,69.346,12.055,103.945,18.123c190.105,34.691,404.758,29.358,568.234-83.682
									c12.379-8.391,25.168-19.591,36.428-29.233c8.099-8.189,19.115-18.506,26.226-27.487c0,0,10.854-12.889,10.854-12.889
									l9.637-13.752c3.223-4.577,6.539-9.099,9.093-14.071c5.291-9.034,11.485-20.088,15.355-29.671
									c1.182-3.081,4.032-8.479,5.13-11.427c1.667-5.288,6.243-18.441,7.966-23.721c1.976-9.078,4.779-19.368,6.187-28.516
									c8.568-55.627-0.96-112.355-22.489-164.86c-1.524-3.716-1.411-7.666-0.013-11.124
									c95.242-224.563,81.488-496.374-81.871-685.753c-51.818-61.97-115.549-113.67-185.476-154.661
									c-6.848-4.015-9.145-12.82-5.13-19.669c24.51-27.921,22.442-72.969-6.535-96.899c0.001,0,22.463-4.978,22.463-4.978
									c-3.958,8.531-8.951,16.954-15.582,24.496c-12.808,15.185-33.111,24.596-52.45,26.608
									c-9.472,1.156-18.681,1.069-27.594,0.46c-7.919-0.541-13.901-7.401-13.359-15.32c0.19-2.785,1.207-5.388,2.73-7.493
									c32.45-42.834,27.43-107.927-12.575-144.068c0.001,0,23.143-5.077,23.143-5.077c-12.891,31.761-32.482,61.161-57.205,85.062
									c-23.075,22.761-58.276,45.299-83.248,56.263c-23.968,10.989-47.915,7.333-72.593,7.407
									c-153.042-9.047-303.401,3.035-432.798,93.086c-70.728,48.147-128.409,114.017-173.789,187.108
									c-45.244,73.436-79.263,153.802-105.473,236.537c-1.074,3.389-3.287,6.101-6.085,7.847
									c-58.188,34.638-106.513,85.484-129.488,149.314c-68.271,202.39,90.812,407.208,249.878,517.184
									c56.823,40.19,119.428,71.319,183.204,99.04c21.244,9.523,42.738,18.506,64.08,28.604c2.176,0.998,3.118,3.591,2.093,5.754
									C1947.278,1890.854,1945.356,1891.788,1943.497,1891.467L1943.497,1891.467z"/>
							</g>
							<g>
								<g>
									<g>
										
											<ellipse transform="matrix(0.3836 -0.9235 0.9235 0.3836 209.5506 2537.9722)" style="fill:#591224;" cx="2006.061" cy="1112.004" rx="112.348" ry="97.288"/>
									</g>
								</g>
								<g>
									<g>
										
											<ellipse transform="matrix(0.3836 -0.9235 0.9235 0.3836 250.6092 2559.7961)" style="fill:#FFFFFF;" cx="2042.945" cy="1092.157" rx="40.155" ry="31.72"/>
									</g>
								</g>
								<g style="opacity:0.2;">
									<g>
										
											<ellipse transform="matrix(0.3836 -0.9235 0.9235 0.3836 160.5375 2506.5657)" style="fill:#FFFFFF;" cx="1958.023" cy="1133.019" rx="27.175" ry="17.568"/>
									</g>
								</g>
							</g>
							<g>
								<g>
									<g>
										
											<ellipse transform="matrix(0.1454 -0.9894 0.9894 0.1454 879.7362 3558.9722)" style="fill:#591224;" cx="2499.981" cy="1270.25" rx="112.348" ry="97.288"/>
									</g>
								</g>
								<g>
									<g>
										
											<ellipse transform="matrix(0.1454 -0.9894 0.9894 0.1454 896.9982 3507.0027)" style="fill:#FFFFFF;" cx="2478.537" cy="1234.272" rx="40.155" ry="31.72"/>
									</g>
								</g>
								<g style="opacity:0.2;">
									<g>
										
											<ellipse transform="matrix(0.1454 -0.9894 0.9894 0.1454 863.4788 3625.5703)" style="fill:#FFFFFF;" cx="2530.395" cy="1312.962" rx="27.175" ry="17.568"/>
									</g>
								</g>
							</g>
							<g>
								<path style="fill:#591224;" d="M2197.743,1274.756c2.637,1.91,6.333,0.461,7.002-2.726
									c2.007-9.562,3.542-26.703-8.928-33.574c-16.517-9.101-23.921,5.417-23.991,10.52c-0.082,5.948,3.158,10.868,11.231,15.864
									C2188.012,1267.905,2193.673,1271.807,2197.743,1274.756z"/>
							</g>
							<g>
								<path style="fill:#591224;" d="M2245.725,1292.134c-3.249-0.222-5.159-3.701-3.632-6.578
									c4.582-8.63,14.379-22.778,28.357-20.07c18.514,3.586,14.904,19.478,11.69,23.443c-3.746,4.621-9.385,6.325-18.785,4.993
									C2257.587,1293.104,2250.74,1292.476,2245.725,1292.134z"/>
							</g>
							<g>
								<g>
									<path style="fill:#591224;" d="M2056.874,1721.37c-173.193-57.502-335.086-180.915-260.269-312.326
										c30.013-52.684,91.883-63.207,122.887-61.412c16.049,0.912,30.471,3.287,43.734,6.726
										c77.123,20.076,115.943,77.427,216.856,110.931c100.873,33.491,176.585,14.165,249.119,43.777
										c12.463,5.103,24.882,11.639,37.267,20.167c23.952,16.451,60.048,59.5,38.08,114.855
										C2449.722,1782.136,2230.027,1778.858,2056.874,1721.37z"/>
								</g>
								<g>
									<path style="fill:#FFFFFF;" d="M2429.202,1509.066c-39.979,70.902-149.282,74.324-284.364,29.475
										c-135.121-44.862-211.38-109.929-181.612-184.184c77.123,20.076,115.943,77.427,216.856,110.931
										C2280.956,1498.78,2356.667,1479.454,2429.202,1509.066z"/>
								</g>
								<g>
									<path style="fill:#591224;" d="M2273.901,1770.882c-71.517,0-149.237-14.373-220.817-38.137
										c-110.016-36.526-240.638-109.614-277.308-205.2c-16.141-42.073-12.632-83.941,10.428-124.443
										c32.732-57.488,99.614-69.487,133.99-67.441c65.105,3.789,105.112,30.129,147.469,58.015
										c32.62,21.477,66.35,43.684,116.183,60.229c0.001,0,0.001,0,0.001,0c49.927,16.577,92.893,19.807,134.443,22.932
										c53.728,4.041,104.478,7.856,154.974,42.512c27.356,18.774,67.076,67.102,42.433,129.153
										C2480.839,1736.285,2384.841,1770.882,2273.901,1770.882z M1912.556,1359.42c-30.083,0-80.427,11.484-105.516,55.547
										c-19.335,33.958-22.322,68.945-8.878,103.989c28.173,73.435,128.748,146.633,262.478,191.035
										c177.745,59.014,383.478,53.799,432.777-70.337c19.066-48.013-12.223-85.784-33.717-100.535
										c-45.171-31.004-90.602-34.419-143.206-38.374c-40.997-3.083-87.466-6.577-140.201-24.087
										c-52.827-17.539-89.478-41.667-121.813-62.956c-41.313-27.2-76.993-50.688-135.679-54.107
										C1916.841,1359.481,1914.75,1359.42,1912.556,1359.42z"/>
								</g>
								<g>
									<path style="fill:#FC9595;" d="M2251.278,1663.504c38.172,31.418-27.096,89.387-185.015,36.957
										c-157.919-52.431-156.314-131.487-102.328-132.356c0.37-0.006,0.74-0.01,1.11-0.012
										c48.378-0.272,111.586,41.007,123.187,87.986c47.385-27.395,127.43-21.112,162.256,6.784
										C2250.753,1663.075,2251.017,1663.289,2251.278,1663.504z"/>
								</g>
							</g>
						</g>
					</g>
				</g>
				<g>
					<g>
						<path style="fill:#F8D5B5;" d="M2536.989,2076.805l72.522-149.576c6.793-14.011,22.231-22.497,37.407-19.013
							c15.366,3.527,28.388,17.65,26.452,41.425c-0.523,6.42-2.359,12.664-4.858,18.601l-35.615,84.587l93.128-66.52
							c6.871-4.907,15.405-7.309,23.726-5.882c12.03,2.063,20.786,9.834,23.657,21.063c2.763,10.809-1.134,22.255-9.023,30.144
							l-97.92,97.921C2622.37,2134.942,2579.449,2111.528,2536.989,2076.805z"/>
					</g>
					<g>
						<path style="fill:#E1B189;" d="M2578.027,1993.437c-4.277,7.881-2.895,18.006,1.909,25.577
							c4.804,7.571,12.553,12.862,20.747,16.504c6.636,2.949,13.886,4.972,21.116,4.284c7.23-0.688,14.43-4.444,17.929-10.808
							c-5.292,17.642,4.653,37.537,20.358,47.158c15.706,9.622,35.687,10.205,53.459,5.368
							c-4.604,10.479-14.68,18.368-25.959,20.323c-5.963,1.034-12.069,0.5-18.122,0.463c-16.124-0.098-32.26,3.414-46.883,10.206
							c1.673-17.551-7.102-35.038-20.272-46.759c-13.17-11.72-30.253-18.25-47.531-21.757c7.506-16.134,15.012-32.269,22.518-48.403
							"/>
					</g>
					<g>
						<path style="fill:#591224;" d="M2653.678,2142.32c-37.778,0-77.693-18.14-124.279-56.235
							c-4.297-3.513-5.62-9.517-3.198-14.509L2598.723,1922c9.39-19.372,30.79-30.08,50.876-25.469
							c19.606,4.502,38.253,22.971,35.718,54.084c-0.583,7.178-2.467,14.465-5.758,22.278l-19.191,45.579l58.688-41.919
							c9.718-6.946,21.646-9.839,32.719-7.944c16.765,2.876,29.193,14.057,33.247,29.912c3.696,14.453-0.963,30.391-12.161,41.589
							l-97.922,97.92c-1.892,1.895-4.365,3.098-7.023,3.423C2663.199,2142.03,2658.455,2142.32,2653.678,2142.32z
							 M2551.951,2073.426c41.973,32.844,76.934,47.151,109.058,44.629l94.899-94.897c5.239-5.242,7.494-12.405,5.885-18.699
							c-1.691-6.611-6.687-10.952-14.069-12.217c-4.807-0.828-10.178,0.569-14.729,3.821l-93.131,66.521
							c-4.364,3.118-10.266,2.954-14.454-0.393c-4.188-3.35-5.643-9.073-3.562-14.014l35.615-84.587
							c2.289-5.435,3.583-10.315,3.959-14.92c1.464-17.966-7.919-26.643-17.186-28.769c-9.307-2.139-19.373,3.144-23.937,12.559
							L2551.951,2073.426z"/>
					</g>
				</g>
				<g>
					<g>
						<path style="fill:#F8D5B5;" d="M2649.861,2297.299c28.466-20.111,52.656-50.415,71.478-81.719
							c1.803-2.998,3.709-5.915,5.607-8.854c17.66-27.357,22.626-58.773,4.06-81.909c-8.618-10.739-21.334-17.442-34.929-19.627
							c-24.108-3.875-59.241-2.147-77.566,5.183c0,0,0,0-0.001,0c3.443-12.195-0.967-25.298-10.463-33.665
							c-7.53-6.635-15.342-12.808-23.447-18.5c-32.7-22.965-77.744-20.087-105.902,8.264
							c-35.083,35.323-54.998,94.252-28.024,130.218c25.268,34.361,53.061,66.102,84.811,93.737
							C2567.61,2318.387,2615.076,2321.875,2649.861,2297.299z"/>
					</g>
					<g>
						<path style="fill:#E1B189;" d="M2559.461,2276.04c-31.75-27.635-59.544-59.376-84.812-93.737
							c-26.974-35.965-7.059-94.895,28.024-130.218c1.33-1.339,2.731-2.566,4.133-3.791c-10.309,3.927-19.933,9.944-28.11,18.177
							c-35.083,35.323-54.998,94.253-28.024,130.218c25.268,34.361,53.061,66.102,84.811,93.737
							c32.126,27.961,79.592,31.449,114.377,6.874c2.097-1.482,4.122-3.128,6.172-4.716
							C2624.055,2305.639,2586.383,2299.472,2559.461,2276.04z"/>
					</g>
					<g>
						<path style="fill:#E1B189;" d="M2633.222,2113.581c-9.795,8.9-7.59,25.887,1.264,35.723
							c8.855,9.836,22.175,14.168,34.981,17.508c17.395,4.536,38.7,6.92,50.77-6.403c10.176-11.232,8.819-28.507,5.834-43.366
							c18.096,18.204,19.904,47.945,11.195,72.091c-8.709,24.146-26.054,44.023-43.025,63.281
							c-16.396-23.47-35.395-48.738-63.381-54.773c-24.373-5.256-49.064,5.644-71.295,16.934
							c8.839-15.655,17.879-31.94,19.388-49.854c1.509-17.914-6.728-37.985-23.522-44.401c15.001,6.571,33.12,12.936,46.863,4.027
							c3.593-2.329,6.537-5.551,10.111-7.91c6.12-4.039,14.012-5.278,21.075-3.309"/>
					</g>
					<g>
						<path style="fill:#591224;" d="M2597.512,2325.877c-24.856,0-49.779-8.896-69.9-26.409
							c-30.363-26.426-58.689-57.725-86.598-95.679c-31.107-41.475-9.613-106.711,29.176-145.767
							c32.146-32.366,83.159-36.409,121.299-9.629c8.365,5.876,16.603,12.376,24.481,19.319
							c8.085,7.122,13.286,16.672,15.027,26.763c21.271-4.143,48.232-4.138,66.98-1.123c17.137,2.754,32.188,11.265,42.378,23.962
							c20.328,25.33,19.081,61.184-3.339,95.913l-0.795,1.23c-1.563,2.417-3.123,4.827-4.607,7.295
							c-22.198,36.921-48.075,66.431-74.836,85.337c0,0,0,0.002-0.001,0.002C2638.972,2319.671,2618.265,2325.877,2597.512,2325.877
							z M2536.072,2054.725c-17.958,0-35.599,6.833-48.87,20.193c-30.928,31.14-50.021,83.801-26.938,114.578
							c26.918,36.606,54.075,66.633,83.091,91.887c28.553,24.849,69.508,27.368,99.589,6.128l0,0
							c24.067-17.007,47.625-44.016,68.121-78.108c1.619-2.693,3.318-5.325,5.023-7.964l0.784-1.213
							c16.548-25.632,18.336-51.018,4.784-67.905c-6.464-8.054-16.223-13.486-27.482-15.295
							c-23.204-3.725-55.817-1.677-71.212,4.478c-4.244,1.697-9.076,0.835-12.471-2.219s-4.76-7.773-3.519-12.168
							c2.112-7.48-0.577-15.886-6.851-21.414c-7.223-6.362-14.763-12.312-22.412-17.685
							C2565.017,2059.102,2550.442,2054.725,2536.072,2054.725z M2649.861,2297.301h0.05H2649.861z"/>
					</g>
					<g>
						<path style="fill:#591224;" d="M2629.753,2118.843c-15.104,7.502-9.664,26.392,0.233,37.553
							c12.11,14.303,31.549,21.489,50.45,20.958c6.214-0.162,6.989,9.031,0.824,9.896c-34.257,5.063-74.835-14.018-81.293-51.349
							c-2.518-14.008,5.349-30.26,17.468-37.65C2631.59,2089.385,2644.258,2110.576,2629.753,2118.843L2629.753,2118.843z"/>
					</g>
					<g>
						<path style="fill:#591224;" d="M2626.63,2090.289c5.094,36.38-31.591,68.308-64.405,45.209
							c-6.084-3.269-27.764-29.659-13.855-27.522c10.862,4.941,18.615,9.534,28.353,10.782c7.942,0.548,15.396-1.444,22.153-5.88
							c6.667-5.305,9.766-14.146,8.567-23.036c-0.732-5.161,2.858-9.938,8.018-10.671c5.102-0.724,9.83,2.777,10.645,7.843
							L2626.63,2090.289L2626.63,2090.289z"/>
					</g>
					<g>
						<path style="fill:#591224;" d="M2578.212,2125.535c12.918,27.142,11.603,75.979-21.149,87.769
							c-2.683,0.775-4.248-3.189-1.784-4.458c12.147-7.492,15.565-22.23,15.946-35.609c0.224-13.366-3.347-27.309-10.058-38.613
							C2554.531,2122.909,2572.147,2113.467,2578.212,2125.535L2578.212,2125.535z"/>
					</g>
				</g>
			</g>
			<g>
				<g>
					<path style="fill:#FFBB4C;" d="M2928.084,1147.536c-4.671-3.21-9.487-6.378-14.451-9.456
						c-48.407-30.442-102.082-51.544-157.945-63.52c-62.336-13.338-125.021-23.954-188.127-31.228
						c-55.796-6.454-112.131-1.842-166.744,11.332c-13.617,3.295-27.321,5.147-42.274,3.446c-42-4.607-80.279-17.079-115.564-36.006
						c-13.148-7.245-23.28-16.72-32.457-27.261c-36.892-42.363-80.166-78.743-129.429-105.764
						c-55.695-30.59-112.899-58.264-171.45-83.448c-52.514-22.544-108.494-36.395-165.571-39.636
						c-5.842-0.33-11.591-0.56-17.251-0.642c-14.818-0.304-28.611,7.399-36.034,20.204c-9.373,15.99-16.876,36.807-20.276,57.019
						c-2.152,13.016,2.891,26.127,13.07,34.405l3.579,2.927c-29.131,68.424-42.65,138.911-36.808,204.077
						c9.088,101.626,79.324,187.459,175.91,220.403c79.019,27.01,159.865,27.506,213.182,7.129
						c63.397-25.205,123.805-84.892,182.395-165.143c4.975-6.808,12.548-11.353,20.881-12.124
						c18.74-1.794,35.721,3.204,50.869,15.663c6.597,5.447,10.156,13.652,10.295,22.2c1.362,99.205,16.072,182.626,53.139,239.827
						c31.648,47.481,97.895,93.849,177.956,117.59c97.799,29.009,204.795-0.356,271.053-77.95
						c42.444-49.703,72.218-115.029,88.08-187.679l4.571-0.297c12.993-0.872,24.668-8.421,30.366-20.095
						c9.092-18.545,15.038-40.048,16.742-58.648C2947.099,1170.085,2940.326,1155.849,2928.084,1147.536z M2138.566,1135.702
						c-32.608,44.96-71.8,76.94-116.868,97.455c-30.6,13.942-64.836,17.996-98.009,12.255
						c-34.079-5.873-67.584-15.323-100.582-27.824c-34.651-13.191-63.734-38.397-80.406-71.554
						c-0.222-0.441-0.491-0.931-0.713-1.372c-18.425-37.306-25.627-79.251-22.529-120.736c2.533-34.549,8.012-68.356,16.246-101.477
						c3.323-13.497,10.257-26.081,20.518-35.461c9.163-8.32,19.994-13.934,32.131-17.432
						c69.49-13.156,199.991,45.38,317.408,113.086c19.375,11.141,35.516,27.575,44.827,47.96
						c5.603,12.318,8.645,25.061,9.218,38.329C2160.866,1092.873,2152.683,1116.302,2138.566,1135.702z M2829.606,1261.564
						c-12.122,31.91-26.892,62.85-44.495,92.621c-21.158,35.868-50.974,66.206-87.389,86.347c-0.443,0.271-0.884,0.493-1.374,0.762
						c-32.574,17.702-70.845,21.835-106.818,12.91c-34.261-8.52-67.162-19.865-98.541-34.461
						c-30.482-14.225-56.299-37.093-73.477-65.999c-25.367-42.526-39.308-91.171-40.498-146.65
						c-0.53-23.969,6.092-47.94,20.627-66.987c8.053-10.572,17.81-19.349,29.459-26.226c19.221-11.421,41.854-15.748,64.19-13.848
						c135.029,11.3,275.599,37.652,325.223,88.06c7.958,9.82,13.671,20.559,16.403,32.666
						C2836.023,1234.321,2834.542,1248.563,2829.606,1261.564z"/>
				</g>
				<g>
					<g>
						<path style="fill:#E2832D;" d="M2840.339,1233.198c4.935-13,6.416-27.243,3.311-40.805
							c-2.732-12.107-8.445-22.845-16.403-32.666c-49.624-50.408-190.194-76.759-325.223-88.06
							c-22.336-1.901-44.969,2.426-64.19,13.848c-11.649,6.877-21.406,15.654-29.459,26.226
							c-8.949,11.728-14.875,25.329-18.002,39.64c2.177-3.894,4.538-7.694,7.27-11.274c8.053-10.572,17.81-19.349,29.459-26.226
							c19.221-11.421,41.854-15.748,64.19-13.848c135.029,11.3,275.599,37.652,325.223,88.06
							c7.958,9.82,13.671,20.559,16.403,32.666c2.478,10.82,1.995,22.064-0.791,32.774
							C2834.966,1246.792,2837.744,1240.029,2840.339,1233.198z"/>
					</g>
					<g>
						<path style="fill:#E2832D;" d="M2170.54,1040.565c-0.573-13.269-3.615-26.012-9.218-38.33
							c-9.311-20.385-25.452-36.82-44.827-47.96c-117.417-67.706-247.918-126.242-317.408-113.086
							c-12.138,3.498-22.968,9.112-32.131,17.432c-10.261,9.38-17.195,21.965-20.518,35.461c-0.554,2.23-1.064,4.471-1.593,6.707
							c3.17-5.068,6.943-9.748,11.38-13.803c9.163-8.32,19.994-13.934,32.131-17.432c69.49-13.156,199.991,45.38,317.408,113.086
							c19.375,11.141,35.516,27.575,44.827,47.96c5.603,12.318,8.645,25.061,9.218,38.329c0.378,8.555-0.47,17.036-2.301,25.3
							C2166.453,1077.779,2171.37,1059.345,2170.54,1040.565z"/>
					</g>
					<g>
						<path style="fill:#E2832D;" d="M2816.762,1423.214c-66.259,77.593-173.254,106.959-271.053,77.95
							c-80.061-23.741-146.308-70.11-177.956-117.59c-37.067-57.2-51.777-140.622-53.139-239.827
							c-0.138-8.548-3.698-16.753-10.295-22.2c-15.147-12.459-32.128-17.458-50.869-15.663c-8.333,0.771-15.906,5.315-20.881,12.124
							c-58.59,80.251-118.998,139.938-182.395,165.143c-53.317,20.377-134.163,19.881-213.182-7.129
							c-96.586-32.944-166.822-118.777-175.91-220.403c-4.861-54.229,3.726-112.141,23.519-169.485
							c-27.328,66.466-39.917,134.659-34.252,197.851c9.088,101.626,79.324,187.459,175.91,220.403
							c79.019,27.01,159.865,27.506,213.182,7.129c63.397-25.205,123.805-84.892,182.395-165.143
							c4.975-6.808,12.548-11.353,20.881-12.124c18.74-1.794,35.721,3.204,50.869,15.663c6.597,5.447,10.156,13.652,10.295,22.2
							c1.362,99.205,16.072,182.626,53.139,239.827c31.648,47.481,97.895,93.849,177.956,117.59
							c97.799,29.009,204.795-0.356,271.053-77.95c30.967-36.263,55.155-80.868,72.15-130.54
							C2862.24,1359.362,2841.708,1394.002,2816.762,1423.214z"/>
					</g>
				</g>
				<g>
					<path style="fill:#591224;" d="M2610.629,1554.935c-26.533,0-53.378-3.792-79.742-11.611
						c-79.618-23.613-150.828-70.901-185.84-123.411c-35.895-55.376-54.031-136.321-55.548-247.612
						c-0.062-4.57-1.909-8.684-5.067-11.289c-11.93-9.839-25.121-13.904-40.334-12.463c-4.13,0.393-8.004,2.685-10.632,6.284
						c-65.752,90.083-127.478,145.708-188.707,170.054c-59.117,22.622-144.559,19.966-223.151-6.865
						c-103.219-35.239-176.066-126.606-185.586-232.766c-5.646-62.961,6.064-132.363,33.898-201.326
						c-11.099-11.553-16.254-27.786-13.579-43.713c3.616-21.543,11.632-44.109,21.995-61.909
						c10.04-17.244,28.737-27.686,48.745-27.349c5.778,0.107,11.768,0.334,17.803,0.676c57.714,3.254,115.059,16.982,170.441,40.803
						c60.323,25.945,118.431,54.216,172.711,84.026c48.918,26.865,93.777,63.511,133.329,108.919
						c9.722,11.157,18.529,18.596,28.558,24.123c34.541,18.521,71.669,30.093,110.208,34.311c0.022,0.005,0.045,0.007,0.067,0.01
						c11.372,1.304,22.863,0.332,37.25-3.142c58.531-14.136,116.316-18.052,171.758-11.646
						c61.537,7.114,125.289,17.695,189.484,31.453c58.954,12.637,113.662,34.634,162.604,65.386
						c5.17,3.247,10.184,6.528,14.908,9.751c16.547,11.289,25.713,30.645,23.918,50.517c-1.869,20.696-8.475,43.909-18.126,63.682
						c-6.968,14.28-20.481,24.36-36.15,27.322c-17.22,72.346-47.841,135.715-88.889,183.789
						C2765.19,1521.558,2689.326,1554.93,2610.629,1554.935z M2250.026,1119.488c19.44,0,37.136,6.482,52.711,19.326
						c9.692,7.993,15.354,20.056,15.531,33.096c1.442,105.708,18.064,181.663,50.819,232.197
						c31.348,47.012,96.519,89.846,169.98,111.633c93.68,27.776,194.166-1.062,256.005-73.484
						c39.896-46.726,69.282-109.465,84.984-181.436c1.366-6.26,6.707-10.862,13.101-11.289l4.587-0.305
						c7.986-0.527,15.029-5.132,18.39-12.017c8.175-16.753,13.762-36.306,15.328-53.652c0.856-9.49-3.541-18.747-11.477-24.16
						c-4.535-3.093-9.207-6.145-14.004-9.16c-46.084-28.955-97.67-49.685-153.324-61.611
						c-63.297-13.567-126.133-23.997-186.758-31.003c-52.068-6.023-106.471-2.305-161.703,11.03
						c-17.56,4.238-32.567,5.432-47.23,3.762c-42.209-4.626-82.849-17.288-120.787-37.632
						c-13.082-7.209-24.637-16.875-36.511-30.503c-37.323-42.849-79.542-77.368-125.485-102.598
						c-53.475-29.368-110.75-57.231-170.229-82.815c-52.283-22.488-106.346-35.444-160.692-38.508
						c-5.657-0.32-11.232-0.532-16.719-0.632c-9.657-0.237-18.55,4.822-23.344,13.057c-8.684,14.915-15.422,33.94-18.486,52.195
						c-1.31,7.805,1.742,15.803,7.965,20.872l3.563,2.9c4.972,4.048,6.665,10.896,4.154,16.792
						c-28.855,67.776-41.206,135.947-35.718,197.144c8.506,94.849,73.752,176.533,166.224,208.103
						c72.515,24.756,150.45,27.549,203.4,7.292c55.863-22.214,113.464-74.641,175.923-160.212
						c7.476-10.242,18.826-16.79,31.139-17.964C2244.287,1119.627,2247.175,1119.488,2250.026,1119.488z"/>
				</g>
				<g>
					<path style="fill:#591224;" d="M1953.062,1259.957c-10.422,0-20.917-0.896-31.393-2.705
						c-33.81-5.84-68.396-15.42-102.799-28.477c-38.247-14.514-69.102-41.98-86.881-77.334l-0.734-1.47
						c-18.855-38.186-27.074-82.078-23.771-126.941c2.549-34.629,8.126-69.443,16.578-103.481
						c4.072-16.404,12.404-30.72,24.093-41.399c10.038-9.17,22.441-15.938,36.868-20.112c0.364-0.105,0.731-0.193,1.104-0.264
						c79.072-14.968,220.718,53.989,325.621,114.463c22.535,12.991,39.738,31.448,49.749,53.377
						c6.19,13.557,9.658,27.952,10.309,42.786c1.119,25.52-7.233,51.931-23.517,74.365c-33.036,45.518-73.955,79.6-121.62,101.299
						C2003.517,1254.6,1978.512,1259.957,1953.062,1259.957z M1791.143,881.229c-10.763,3.188-19.539,7.976-26.815,14.622
						c-8.188,7.48-14.065,17.673-16.996,29.475c-8.124,32.725-13.486,66.189-15.936,99.465c-2.988,40.6,4.396,80.212,21.354,114.556
						l0.662,1.326c15.074,29.978,41.344,53.306,73.966,65.686c32.974,12.515,66.069,21.687,98.37,27.266
						c31.296,5.4,62.76,1.465,90.989-11.382c43.844-19.961,81.577-51.438,112.148-93.559c13.114-18.069,19.85-39.104,18.969-59.233
						c-0.515-11.738-3.263-23.137-8.168-33.879c-7.925-17.358-21.726-32.075-39.912-42.561
						C1956.926,910.66,1847.372,870.968,1791.143,881.229z"/>
				</g>
				<g>
					<path style="fill:#591224;" d="M2626.809,1470.782c-13.354,0-26.844-1.643-40.19-4.966
						c-35.718-8.892-69.594-20.74-100.687-35.215c-33.175-15.447-60.404-39.893-78.744-70.701
						c-26.787-45-40.972-96.331-42.161-152.561c-0.587-27.717,7.61-54.177,23.08-74.504c8.988-11.812,20.044-21.66,32.861-29.273
						c20.726-12.309,45.375-17.668,71.305-15.486c120.662,10.127,276.342,34.243,332.772,91.619
						c0.265,0.269,0.518,0.552,0.757,0.845c9.469,11.653,15.801,24.282,18.821,37.539c3.514,15.437,2.197,31.948-3.809,47.749
						c-12.466,32.786-27.734,64.568-45.382,94.465c-22.865,38.743-54.641,70.117-91.895,90.73l-1.449,0.793
						C2679.012,1464.371,2653.18,1470.782,2626.809,1470.782z M2481.082,1111.58c-17.489,0-33.885,4.294-47.871,12.598
						c-10.154,6.03-18.91,13.828-26.024,23.179c-12.201,16.033-18.661,37.153-18.187,59.475c1.1,52.036,14.15,99.409,38.792,140.803
						c15.865,26.653,39.47,47.825,68.26,61.228c29.707,13.831,62.126,25.164,96.359,33.686c33.861,8.428,68.746,4.243,98.221-11.794
						l1.331-0.728c33.479-18.525,62.13-46.86,82.822-81.921c16.959-28.73,31.635-59.28,43.618-90.798
						c4.321-11.367,5.304-23.093,2.842-33.906c-2.188-9.607-6.669-18.542-13.691-27.297
						c-40.355-40.474-152.976-70.344-317.285-84.136C2487.178,1111.71,2484.113,1111.58,2481.082,1111.58z"/>
				</g>
				<g>
					<path style="fill:#591224;" d="M1788.355,869.555c-12.122,3.508-22.968,9.092-32.113,17.445
						c-10.27,9.382-17.192,21.936-20.545,35.436c-8.23,33.142-13.716,66.95-16.258,101.473
						c-3.056,41.509,4.131,83.426,22.56,120.745c0.231,0.469,0.464,0.936,0.698,1.402c16.669,33.147,45.737,58.347,80.425,71.512
						c32.987,12.519,66.486,21.982,100.584,27.869c33.14,5.721,67.386,1.647,97.994-12.286
						c45.06-20.511,84.272-52.495,116.884-97.427c14.082-19.403,22.293-42.848,21.243-66.799
						c-0.581-13.243-3.62-26.028-9.238-38.333c-9.295-20.361-25.44-36.791-44.831-47.969
						C1988.366,914.947,1857.865,856.402,1788.355,869.555z"/>
				</g>
				<g>
					<path style="fill:#591224;" d="M2816.497,1188.1c7.958,9.793,13.686,20.564,16.436,32.641
						c3.089,13.563,1.617,27.824-3.326,40.826c-12.135,31.92-26.903,62.823-44.499,92.633
						c-21.156,35.843-50.959,66.182-87.376,86.334c-0.458,0.253-0.915,0.504-1.373,0.753
						c-32.593,17.728-70.841,21.858-106.845,12.896c-34.238-8.523-67.154-19.848-98.523-34.452
						c-30.488-14.194-56.3-37.067-73.502-65.964c-25.324-42.541-39.303-91.174-40.477-146.682
						c-0.507-23.969,6.115-47.911,20.634-66.99c8.027-10.549,17.814-19.319,29.444-26.225c19.245-11.428,41.876-15.721,64.18-13.849
						C2626.3,1111.355,2766.892,1137.664,2816.497,1188.1z"/>
				</g>
			</g>
		</g>
		<g style="opacity:0.55;">
			<path style="fill:#FFFFFF;" d="M1898.022,929.679c-12.861-7.226-25.957-14.545-40.358-17.747
				c-12.869-2.862-26.27-2.306-39.341-0.591c-16.005,2.1-32.714,6.427-43.94,18.026c-7.448,7.695-11.8,18.028-13.524,28.598
				c-1.559,9.556-0.582,20.547,6.604,27.035c8.237,7.438,21.278,5.979,31.401,1.429c10.123-4.55,19.106-11.676,29.763-14.775
				c8.849-2.573,18.253-2.191,27.456-1.707c9.202,0.484,18.574,1.031,27.506-1.238c8.932-2.269,17.526-7.869,20.978-16.413
				c3.452-8.544,0.076-19.961-8.482-23.378"/>
		</g>
		<g style="opacity:0.55;">
			<path style="fill:#FFFFFF;" d="M2569.369,1155.06c-12.861-7.226-25.957-14.545-40.357-17.747
				c-12.869-2.862-26.27-2.306-39.341-0.591c-16.004,2.1-32.714,6.427-43.94,18.026c-7.448,7.695-11.8,18.028-13.524,28.598
				c-1.559,9.556-0.582,20.547,6.604,27.035c8.237,7.438,21.278,5.979,31.401,1.429c10.123-4.55,19.106-11.676,29.763-14.775
				c8.849-2.573,18.253-2.191,27.456-1.707c9.203,0.484,18.574,1.031,27.506-1.238c8.932-2.269,17.526-7.869,20.978-16.413
				c3.452-8.544,0.076-19.961-8.482-23.378"/>
		</g>
	</g>
</g>
</svg>